{"glyphs":{":":{"x_min":0,"x_max":210,"ha":210,"o":"m 27 75 q 27 106 49 128 q 71 150 102 150 q 133 150 155 128 q 177 106 177 75 q 177 44 155 22 q 133 0 102 0 q 71 0 49 22 q 27 44 27 75 z m 27 345 q 27 376 49 398 q 71 420 102 420 q 133 420 155 398 q 177 376 177 345 q 177 314 155 292 q 133 270 102 270 q 71 270 49 292 q 27 314 27 345 z"},"$":{"x_min":0,"x_max":510,"ha":510,"o":"m 233 797 q 251 798 260 798 q 274 798 282 794 q 290 791 297 778 q 299 773 300 755 q 302 737 313 732 q 349 724 385 716 q 427 703 444 673 q 450 653 456 633 q 462 613 462 598 q 452 583 428 583 q 418 583 400 586 q 383 588 381 588 q 367 592 354 601 q 333 617 313 633 q 299 635 299 617 l 299 461 q 301 453 317 443 q 378 420 410 400 q 462 366 479 318 q 488 289 488 260 q 488 176 428 118 q 409 100 385 87 q 365 77 305 57 q 301 52 299 44 q 297 37 297 31 q 297 24 297 20 q 297 11 294 6 q 290 0 278 -3 q 259 -4 249 -4 q 232 -4 222 -2 q 213 1 209 10 q 205 19 205 29 q 205 47 196 54 q 148 64 100 74 q 46 92 34 138 q 27 161 21 185 q 21 196 30 205 q 49 213 75 213 q 81 213 87 213 q 95 211 99 211 q 112 205 135 188 q 172 161 196 161 q 200 166 202 176 q 205 185 205 201 q 205 209 205 213 q 205 236 206 260 q 207 284 208 309 q 208 323 207 338 q 206 352 203 366 q 186 378 151 396 q 93 426 70 461 q 57 479 51 502 q 45 524 45 551 q 45 588 58 617 q 76 659 116 688 q 156 718 202 728 q 208 734 210 762 q 212 791 233 797 z m 209 619 q 209 631 203 634 q 198 637 191 633 q 174 625 165 606 q 156 586 156 564 q 156 523 191 497 q 192 495 197 495 q 201 495 202 497 q 206 511 208 530 q 210 548 210 567 q 210 579 210 592 q 209 605 209 619 z m 367 277 q 364 294 352 306 q 339 319 322 329 q 310 332 307 332 q 300 332 298 326 q 298 302 297 250 q 296 198 296 173 q 299 167 303 162 q 316 162 327 170 q 331 173 348 190 q 359 201 364 217 q 370 233 370 250 q 370 265 367 277 z"},"?":{"x_min":0,"x_max":540,"ha":540,"o":"m 443 750 q 448 745 456 744 q 463 743 490 709 q 505 691 514 663 q 522 635 522 605 q 522 552 501 508 q 403 404 305 301 q 301 293 297 265 q 293 237 276 230 q 263 228 250 226 q 236 224 234 224 q 218 224 206 232 q 198 240 194 253 q 190 266 190 279 q 190 299 195 316 q 200 332 209 349 q 222 387 268 430 q 307 466 346 503 q 385 546 385 585 q 385 619 361 656 q 318 702 258 702 q 244 702 222 698 q 200 693 168 671 q 131 642 113 629 q 103 629 84 626 q 66 624 61 624 q 44 624 34 630 q 23 637 23 650 q 23 659 25 666 q 27 674 28 678 q 36 703 45 728 q 58 757 83 767 q 155 798 246 798 q 357 798 443 750 z m 177 68 q 177 97 195 120 q 213 144 245 144 q 273 144 297 128 q 321 111 321 86 q 321 51 304 26 q 288 0 263 0 q 227 0 202 18 q 177 35 177 68 z"},"'":{"x_min":0,"x_max":174,"ha":174,"o":"m 66 796 q 80 798 86 798 q 100 798 112 792 q 124 787 135 774 q 154 749 154 716 q 154 696 147 681 q 129 640 115 618 q 93 585 64 565 q 42 565 33 582 q 34 588 52 629 q 60 647 60 659 q 60 664 58 672 q 45 692 32 712 q 24 727 24 740 q 24 748 26 758 q 27 767 38 780 q 50 794 66 796 z"},"a":{"x_min":0,"x_max":524,"ha":524,"o":"m 366 494 q 383 486 396 472 q 410 459 420 442 q 431 425 434 392 q 437 358 437 357 l 437 124 q 437 114 442 106 q 447 97 458 92 q 459 92 478 88 q 496 84 502 74 q 507 64 507 55 q 507 46 502 38 q 458 3 405 3 q 390 3 375 6 q 361 6 346 27 q 331 48 317 48 q 247 0 168 0 q 142 0 112 7 q 81 14 52 44 q 24 73 19 107 q 19 133 18 142 q 17 151 17 157 l 21 180 q 36 266 146 311 q 205 335 315 351 q 321 355 321 371 q 321 382 321 387 q 318 406 302 420 q 285 435 268 440 q 251 444 242 444 q 214 444 187 423 q 167 408 142 377 q 124 369 102 369 q 80 369 61 377 q 57 381 55 386 q 52 393 52 404 q 52 411 53 424 q 54 437 53 443 q 53 459 58 468 q 62 477 75 482 q 155 517 244 517 q 313 517 366 494 z m 321 270 q 319 275 295 275 q 234 266 202 251 q 154 228 139 183 q 135 172 135 156 q 135 137 144 122 q 152 107 172 97 q 191 87 211 87 q 218 87 230 89 q 258 89 290 106 q 322 124 324 146 q 327 169 327 203 q 327 223 326 238 q 325 254 321 270 z"},"L":{"x_min":0,"x_max":630,"ha":630,"o":"m 95 799 q 122 799 188 800 q 253 801 277 801 q 316 801 324 800 q 331 798 338 791 q 346 784 347 774 q 347 771 348 760 q 349 750 349 744 q 349 729 344 720 q 339 711 325 707 q 320 706 281 702 q 242 699 242 672 l 242 112 q 242 105 248 101 q 250 100 255 98 q 270 98 286 98 q 302 97 318 97 q 369 97 406 104 q 442 111 473 134 q 491 159 514 170 q 538 180 568 180 q 573 180 579 180 q 587 178 591 178 q 604 170 606 168 q 609 165 612 157 q 612 116 600 79 q 587 42 562 13 q 555 5 538 2 q 521 0 493 0 q 474 0 465 0 l 58 0 q 46 2 39 6 q 32 10 27 22 q 22 34 22 48 q 22 61 28 74 q 33 86 44 93 q 74 99 88 101 q 115 106 115 125 l 115 683 q 115 702 73 704 q 31 706 24 723 q 24 729 23 742 q 22 755 22 762 q 22 777 25 785 q 30 793 38 796 q 46 799 56 799 q 74 798 83 798 q 91 798 95 799 z"},"3":{"x_min":0,"x_max":612,"ha":612,"o":"m 115 772 q 164 785 207 792 q 250 799 295 799 q 372 799 426 775 q 490 746 522 684 q 547 634 547 576 q 547 553 542 532 q 537 512 525 495 q 520 485 505 471 q 467 434 465 431 q 463 429 465 426 q 465 425 489 414 q 513 402 547 364 q 587 319 587 274 q 588 266 588 258 q 589 251 589 241 q 589 180 562 128 q 534 76 482 45 q 441 20 388 8 q 335 -3 276 -3 q 232 -3 190 3 q 148 9 107 20 q 69 26 49 65 q 31 116 22 139 q 20 145 22 152 q 26 159 27 162 q 37 170 50 173 q 63 176 78 176 q 94 176 102 174 q 111 172 115 172 q 152 148 192 124 q 233 100 272 100 q 283 100 288 101 q 337 101 378 122 q 419 143 441 186 q 451 205 451 230 q 451 272 427 302 q 399 340 346 352 q 314 359 244 359 q 233 359 228 366 q 222 374 220 385 q 220 393 218 409 q 217 425 217 426 q 217 440 222 448 q 226 457 237 461 q 337 473 340 474 q 396 490 412 542 q 415 559 415 575 q 415 603 406 624 q 398 645 377 665 q 347 694 299 694 q 288 694 275 692 q 262 691 243 686 q 224 682 175 648 q 130 617 100 617 q 91 617 82 618 q 73 620 57 629 q 46 637 46 655 q 46 661 47 665 q 61 706 69 726 q 85 763 115 772 z"},";":{"x_min":0,"x_max":204,"ha":204,"o":"m 18 336 q 18 367 36 390 q 55 414 84 414 q 115 414 138 396 q 162 377 162 348 q 162 317 144 294 q 125 270 96 270 q 65 270 42 288 q 18 307 18 336 z m 89 164 q 101 164 106 164 q 116 164 124 161 q 131 158 148 145 q 166 132 172 114 q 179 97 179 74 q 179 66 178 58 q 177 49 177 45 q 158 -5 144 -29 q 122 -65 89 -90 q 85 -92 78 -92 q 57 -92 42 -70 q 40 -54 54 -28 q 67 -3 67 11 q 67 19 66 23 q 52 41 43 59 q 31 82 31 101 q 31 111 35 124 q 39 136 55 148 q 71 159 89 164 z"},"J":{"x_min":0,"x_max":441,"ha":441,"o":"m 151 800 l 406 800 q 416 800 420 788 q 425 777 425 758 q 425 744 424 732 q 422 721 414 717 q 407 713 392 713 q 374 713 367 708 q 354 699 352 680 q 350 660 350 648 q 349 637 349 631 q 349 622 349 618 l 349 548 l 349 496 q 349 482 349 472 q 349 461 349 455 q 349 432 349 421 q 349 402 349 393 q 349 376 349 368 q 349 353 349 346 q 349 333 349 326 q 349 314 349 308 q 349 297 349 292 q 349 282 349 278 q 349 269 349 265 q 349 257 349 253 q 349 233 348 213 q 348 193 348 173 q 348 164 348 160 q 348 113 314 71 q 281 29 232 10 q 208 2 190 -1 q 172 -4 151 -4 q 104 -4 32 28 q 24 34 22 44 q 21 54 21 62 q 21 70 21 74 q 24 87 28 100 q 31 113 44 118 q 63 118 81 115 q 135 106 138 106 q 153 106 164 110 q 176 113 191 123 q 213 136 221 156 q 229 176 229 203 q 229 212 228 222 q 228 232 228 242 l 228 665 q 228 673 228 678 q 228 692 224 698 q 222 702 212 706 q 202 709 178 712 q 153 715 147 718 q 142 721 138 730 q 134 739 134 760 q 134 776 138 788 q 143 800 151 800 z"},"V":{"x_min":0,"x_max":835,"ha":835,"o":"m 789 799 q 807 799 812 780 q 816 762 816 746 q 816 730 812 718 q 803 706 777 702 q 751 698 741 684 q 736 679 730 668 q 723 657 718 646 q 695 577 652 441 q 619 339 586 237 q 539 91 517 27 q 511 10 496 4 q 481 -2 454 -2 q 447 -2 430 -1 q 413 0 404 0 q 389 0 375 -3 q 365 1 355 6 q 342 14 338 27 q 227 345 116 664 q 107 686 85 694 q 77 697 40 703 q 33 710 30 722 q 26 734 26 748 q 26 755 27 762 q 28 770 29 777 q 34 798 55 798 q 77 798 88 798 q 107 798 117 798 q 134 798 142 798 q 156 798 164 798 q 177 798 183 798 q 194 798 200 798 q 210 798 214 798 q 223 798 227 798 q 235 798 238 798 q 255 798 272 798 q 290 798 307 799 q 314 799 317 799 q 328 799 336 793 q 344 787 346 776 q 348 766 348 761 q 349 753 349 745 q 349 731 344 721 q 340 711 329 705 q 304 701 288 696 q 271 692 264 672 q 264 655 272 626 q 280 596 283 583 q 294 552 337 427 q 395 258 434 169 q 438 168 442 176 q 443 179 445 183 q 467 254 494 338 q 521 421 545 497 q 578 603 592 658 q 592 666 588 676 q 584 685 581 691 q 574 695 546 699 q 518 703 513 720 q 513 731 512 740 q 511 750 510 760 q 510 775 518 784 q 525 794 538 796 q 550 799 572 799 q 591 799 599 799 z"},"\"":{"x_min":0,"x_max":312,"ha":312,"o":"m 49 785 q 67 793 85 793 q 105 793 120 783 q 134 773 141 749 q 143 744 144 734 q 146 724 146 713 q 146 683 134 657 q 123 631 99 601 q 88 589 76 576 q 63 562 50 556 q 36 559 32 561 q 24 565 22 573 q 25 586 37 611 q 49 636 49 649 q 49 668 33 683 q 26 693 22 704 q 17 714 17 725 q 17 730 19 742 q 21 753 28 764 q 35 775 49 785 z m 221 790 q 229 791 233 791 q 254 791 270 781 q 286 771 292 750 q 299 729 299 712 q 299 677 276 637 q 261 610 226 570 q 214 561 210 559 q 204 556 198 556 q 192 556 187 560 q 174 569 174 576 q 176 589 190 617 q 204 645 201 663 q 199 667 181 695 q 168 715 168 728 q 168 738 174 749 q 178 765 192 778 q 205 790 221 790 z"},"7":{"x_min":0,"x_max":552,"ha":552,"o":"m 116 800 q 235 800 362 800 q 490 799 498 797 q 505 795 514 789 q 524 783 529 771 q 529 756 529 741 q 529 726 530 711 q 530 681 526 661 q 523 641 511 622 q 428 460 404 413 q 341 290 307 221 q 269 144 202 8 q 191 -13 172 -13 q 167 -13 161 -10 q 142 0 134 4 q 119 12 109 23 l 109 49 q 133 105 189 237 q 226 323 263 409 q 287 467 340 599 q 341 601 355 636 q 365 660 365 676 l 353 684 q 331 684 310 684 q 288 684 267 685 q 239 685 218 683 q 197 681 181 675 q 165 669 134 647 q 109 629 86 629 q 57 629 39 632 q 21 635 23 646 q 28 677 44 726 q 57 767 59 775 q 71 792 88 796 q 104 800 116 800 z"},"S":{"x_min":0,"x_max":605,"ha":605,"o":"m 119 737 q 156 772 209 787 q 262 802 320 802 q 384 802 440 788 q 495 774 509 760 q 540 729 545 722 q 561 700 561 671 q 561 661 554 648 q 546 634 535 630 q 524 630 510 629 q 496 628 482 627 q 468 627 457 629 q 446 631 437 638 q 391 672 374 682 q 336 703 303 703 q 270 703 239 683 q 215 668 202 648 q 190 628 190 600 q 190 589 191 583 q 196 558 223 534 q 246 513 273 503 q 293 492 396 449 q 475 416 513 383 q 567 336 576 266 q 577 256 578 248 q 578 241 578 235 q 578 170 544 117 q 510 64 449 34 q 369 -3 268 -3 q 207 -3 156 10 q 104 24 88 31 q 50 48 34 82 q 26 115 18 148 q 18 166 30 178 q 45 189 68 189 q 97 189 133 173 q 168 142 205 125 q 242 108 284 108 q 309 108 339 116 q 361 120 378 133 q 395 146 411 168 q 429 199 429 231 q 429 259 414 277 q 376 315 312 344 q 236 374 200 389 q 145 412 110 442 q 64 481 53 529 q 48 556 48 575 q 48 620 66 662 q 85 704 119 737 z"},"Z":{"x_min":0,"x_max":630,"ha":630,"o":"m 123 799 l 179 799 l 234 799 l 284 799 q 299 799 310 799 q 321 799 328 799 q 341 799 350 799 q 360 799 366 799 q 387 799 397 799 q 415 799 423 799 q 438 799 444 799 q 456 799 461 799 q 471 799 475 799 q 483 799 486 799 q 528 800 531 800 q 548 800 560 798 q 571 795 578 785 q 589 769 589 745 q 589 739 588 724 q 587 709 587 701 q 586 695 586 692 q 584 683 580 676 q 527 596 452 490 q 387 399 322 308 q 239 192 193 123 q 190 117 193 112 q 196 108 201 108 q 227 108 254 108 q 282 107 311 107 q 386 107 415 112 q 444 118 460 131 q 481 149 502 167 q 518 179 537 179 q 555 181 564 181 q 580 181 585 180 q 593 178 603 172 q 611 165 611 152 q 611 143 609 136 q 608 131 603 122 q 590 86 577 51 q 558 5 546 2 q 535 0 454 0 q 374 0 315 -1 l 60 -1 q 42 -1 32 6 q 23 12 23 22 l 24 113 q 27 124 35 136 q 40 144 51 157 q 112 244 173 331 q 246 434 296 507 q 377 624 417 683 q 422 688 416 692 q 411 695 404 695 q 387 695 346 697 q 306 699 302 699 q 259 699 230 692 q 202 685 178 663 q 164 644 142 636 q 120 629 93 629 q 75 629 55 632 q 43 644 43 662 q 43 668 44 671 q 60 750 61 753 q 79 799 123 799 z"},"x":{"x_min":0,"x_max":612,"ha":612,"o":"m 65 515 q 107 515 149 515 q 191 515 234 516 q 270 516 274 515 q 283 511 288 504 q 294 496 296 489 q 296 482 296 478 q 296 471 296 464 q 293 450 281 441 q 278 437 267 430 q 256 423 253 415 q 253 393 280 366 q 293 353 306 341 l 319 341 q 323 348 348 373 q 368 393 368 409 q 368 415 367 418 q 364 425 348 434 q 331 442 328 454 q 326 467 326 481 q 326 491 329 500 q 336 508 344 516 l 550 516 q 553 516 559 509 q 565 502 568 495 q 571 488 571 478 q 571 470 569 462 q 567 455 561 443 q 528 423 512 413 q 496 403 487 391 q 473 376 446 344 q 410 302 377 260 l 377 246 q 459 165 542 84 q 546 82 564 78 q 582 75 588 66 q 591 52 591 43 q 591 32 585 15 q 579 5 567 1 q 555 -3 541 -3 q 522 -2 513 -2 q 486 -2 430 -1 q 375 0 344 0 q 334 0 329 8 q 327 12 323 25 q 324 43 324 52 q 325 62 333 69 q 341 74 351 80 q 361 86 364 96 q 364 116 344 136 q 324 155 306 173 q 300 176 294 180 q 290 180 286 176 q 282 168 254 140 q 231 117 231 98 q 231 92 234 84 q 244 78 255 73 q 268 65 273 54 q 273 46 273 42 q 273 23 272 19 q 271 16 265 6 q 262 3 257 1 q 252 0 248 -2 q 213 -2 145 -1 q 77 0 44 0 q 39 0 32 6 q 24 11 22 19 q 22 30 22 37 q 22 44 22 52 q 23 60 26 67 q 34 76 52 82 q 70 87 77 91 q 103 112 135 146 q 181 198 228 250 l 228 263 q 211 280 164 338 q 96 422 44 441 q 32 454 32 475 q 32 488 38 502 q 48 515 65 515 z"},")":{"x_min":0,"x_max":294,"ha":294,"o":"m 79 796 q 93 796 104 789 q 109 786 138 755 q 206 678 244 585 q 282 492 282 390 q 282 373 280 352 q 279 332 275 306 q 260 219 222 144 q 183 69 118 5 q 101 -15 82 -11 q 71 -7 61 2 q 51 12 45 25 q 45 46 62 70 q 87 105 90 112 q 124 169 142 242 q 160 314 160 387 q 160 476 136 557 q 113 638 66 705 q 65 707 49 729 q 38 744 38 756 q 38 762 39 765 q 56 787 79 796 z"},"&":{"x_min":0,"x_max":762,"ha":762,"o":"m 205 783 q 247 797 296 797 q 353 797 403 776 q 453 755 478 715 q 488 700 494 677 q 500 654 500 633 q 500 610 495 590 q 490 569 478 552 q 467 530 445 510 q 438 504 372 458 q 369 453 369 446 q 369 438 372 436 q 438 366 505 296 q 513 294 516 301 q 518 308 519 320 q 522 324 522 334 q 522 340 518 350 q 515 359 513 364 q 506 370 489 379 q 459 394 459 411 q 459 419 463 427 q 459 440 466 452 q 473 464 486 464 l 684 464 q 701 464 708 444 q 709 428 709 420 q 709 404 705 394 q 701 384 689 378 q 675 374 666 371 q 656 368 648 361 q 632 327 618 288 q 613 273 593 213 q 593 205 593 197 q 621 165 660 123 q 694 86 728 50 q 733 37 733 30 q 733 26 729 18 q 712 -2 706 -7 q 700 -12 689 -16 q 664 -16 628 24 q 607 48 593 58 l 535 109 q 526 110 525 109 q 476 53 412 25 q 349 -3 279 -3 q 269 -3 257 -2 q 245 -2 224 1 q 168 11 120 43 q 73 75 43 125 q 22 171 22 226 q 22 249 23 258 q 24 266 32 310 q 42 353 86 392 q 110 414 164 447 q 170 455 170 462 q 170 466 167 471 q 99 533 99 620 q 99 637 101 650 q 103 663 109 678 q 115 694 129 714 q 143 735 150 742 q 175 767 205 783 z m 370 670 q 360 690 350 696 q 340 701 324 704 q 307 706 300 706 q 279 706 264 700 q 250 693 238 674 q 226 654 226 628 q 226 600 241 580 q 253 565 265 550 q 282 532 302 532 q 339 553 343 556 q 357 566 367 579 q 382 604 382 630 q 382 652 370 670 z m 265 375 q 260 380 246 383 q 204 363 176 326 q 147 290 147 246 q 147 208 170 174 q 194 140 232 119 q 248 112 266 108 q 283 105 304 105 q 361 105 411 133 q 423 144 438 158 q 452 173 452 188 q 417 227 362 282 q 314 329 265 375 z"},"v":{"x_min":0,"x_max":636,"ha":636,"o":"m 54 516 q 81 516 110 516 q 138 516 168 517 q 260 517 275 511 q 285 502 285 478 q 285 472 284 460 q 283 449 283 445 q 278 439 244 426 q 217 416 217 397 q 217 388 219 383 q 232 352 246 320 q 260 289 265 259 q 273 245 293 204 q 309 171 322 147 q 323 141 327 138 q 328 138 330 139 q 362 200 398 292 q 422 353 433 383 q 433 392 432 400 q 432 409 428 416 q 404 425 392 430 q 369 439 369 458 q 369 464 370 468 q 370 487 374 500 q 378 514 389 514 q 419 514 486 515 q 552 516 584 516 q 593 515 600 505 q 608 495 608 487 q 607 483 607 474 q 607 463 607 457 q 607 442 599 435 q 579 424 569 418 q 550 406 544 391 q 468 197 392 18 q 381 6 366 0 q 351 -5 335 -5 q 322 -5 300 -4 q 279 -2 278 -2 q 270 -2 259 8 q 253 14 244 26 q 206 118 188 164 q 116 342 93 396 q 89 412 63 424 q 37 436 31 446 q 30 453 30 459 q 30 466 30 469 q 30 481 32 491 q 34 501 41 509 q 47 512 54 516 z"},"O":{"x_min":0,"x_max":755,"ha":755,"o":"m 491 783 q 562 762 612 721 q 669 675 707 594 q 745 513 745 408 q 745 334 724 264 q 704 194 665 139 q 613 71 540 36 q 468 0 383 0 q 367 0 350 1 q 334 2 318 5 q 225 19 146 83 q 63 150 37 239 q 11 315 11 397 q 11 487 42 570 q 74 652 136 710 q 184 755 246 776 q 309 798 379 798 q 437 798 491 783 z m 549 602 q 533 631 511 649 q 500 658 468 677 q 436 696 389 696 q 315 696 262 655 q 209 614 182 546 q 155 477 155 355 q 155 258 210 184 q 270 103 359 103 q 422 103 470 127 q 518 151 549 203 q 603 292 603 399 q 603 501 549 602 z"},"(":{"x_min":0,"x_max":282,"ha":282,"o":"m 230 785 q 240 781 251 772 q 262 763 263 754 q 265 748 265 744 q 265 737 262 731 q 259 725 253 718 q 141 566 141 376 q 141 306 159 235 q 177 177 200 129 q 222 81 257 32 q 259 26 258 16 q 256 6 244 1 q 231 -9 225 -13 q 213 -21 201 -17 q 152 24 116 78 q 84 127 59 191 q 39 256 30 308 q 20 359 20 396 q 20 433 27 465 q 29 475 44 527 q 69 624 145 714 q 213 794 230 785 z"},"C":{"x_min":0,"x_max":654,"ha":654,"o":"m 256 778 q 286 786 326 790 q 365 795 414 795 q 465 795 503 789 q 541 783 551 770 q 564 757 574 728 q 585 700 597 666 q 597 644 591 635 q 581 631 568 629 q 555 627 544 627 q 518 627 495 637 q 464 669 439 684 q 406 704 373 704 q 362 704 348 701 q 280 692 232 625 q 192 570 174 493 q 170 470 167 440 q 164 409 164 385 q 164 306 188 242 q 213 179 270 133 q 293 115 325 104 q 357 93 389 93 q 427 93 458 110 q 472 116 507 146 q 536 171 556 171 q 565 170 570 170 q 586 171 594 171 q 606 171 616 169 q 625 167 630 152 q 623 106 614 83 q 600 48 571 28 q 486 -6 385 -6 q 323 -6 273 6 q 223 19 180 48 q 87 113 56 198 q 32 264 32 400 q 32 520 93 631 q 159 751 256 778 z"},"W":{"x_min":0,"x_max":1122,"ha":1122,"o":"m 1071 801 q 1087 801 1089 798 q 1101 779 1101 757 q 1101 741 1097 728 q 1089 713 1054 702 q 1020 691 1012 666 q 935 349 859 33 q 854 12 834 5 q 815 -2 781 -2 q 772 -2 753 -1 q 734 0 725 0 q 714 -1 709 -1 q 686 7 677 33 q 657 111 617 254 q 592 342 579 390 q 578 392 572 390 q 565 388 564 384 q 542 291 531 246 q 496 99 473 16 q 459 6 458 5 q 449 0 434 0 q 425 0 404 -1 q 382 -2 371 -2 q 338 -2 320 3 q 301 8 297 24 l 118 659 q 110 686 80 695 q 41 707 30 720 q 18 733 18 751 q 18 761 21 769 q 24 777 30 784 q 36 792 42 796 q 49 800 56 800 l 306 800 q 323 800 335 779 q 335 772 337 757 q 339 742 339 735 q 339 710 320 700 q 293 695 287 693 q 269 687 264 672 q 260 665 260 657 q 260 653 262 644 q 264 635 264 629 q 292 519 301 487 q 307 465 341 343 q 361 270 382 198 q 387 193 391 196 q 394 199 396 207 q 398 215 399 217 q 413 277 435 362 q 449 417 472 510 q 495 604 504 652 q 504 665 502 673 q 499 681 490 688 q 485 694 458 698 q 430 703 426 718 q 423 734 423 739 q 422 748 422 757 q 422 765 424 776 q 425 786 434 794 q 445 801 458 801 l 691 801 q 713 801 722 779 q 722 768 723 758 q 724 748 725 739 q 725 726 719 718 q 713 709 683 701 q 653 693 647 675 q 646 670 646 659 q 646 652 647 644 q 648 636 649 629 q 674 543 707 420 q 731 332 763 211 q 768 205 773 205 q 778 205 782 212 q 810 320 836 428 q 862 535 888 651 q 890 657 890 662 q 890 675 881 688 q 872 701 840 706 q 807 710 805 731 q 806 736 806 748 q 806 756 806 760 q 806 784 813 793 q 817 801 830 801 z"},"A":{"x_min":0,"x_max":840,"ha":840,"o":"m 593 799 q 609 799 616 792 q 623 784 626 772 q 626 758 626 750 q 626 727 619 716 q 611 708 583 702 q 555 697 549 680 l 549 652 q 574 571 604 480 q 639 374 661 309 q 690 224 719 140 q 728 117 754 105 q 763 101 799 90 q 809 82 812 72 q 816 62 816 48 q 816 33 815 26 q 813 20 812 14 q 808 1 790 0 q 773 -2 762 -3 l 531 -3 q 523 -3 513 5 q 503 13 502 20 q 500 28 500 34 q 500 39 500 41 q 500 59 506 79 q 514 91 546 98 q 578 104 582 126 q 582 154 569 194 q 550 251 549 258 q 543 264 541 266 q 537 270 533 270 l 304 270 q 291 270 284 266 q 276 263 275 251 q 271 239 253 196 q 239 163 239 142 q 239 134 240 130 q 246 110 286 98 q 327 86 323 51 q 323 37 322 26 q 320 15 310 5 l 298 -3 q 259 -3 172 -4 q 86 -5 46 -5 q 39 -3 34 1 q 23 10 22 20 q 20 39 20 48 q 20 61 24 70 q 28 79 40 91 q 58 93 68 96 q 99 107 109 132 q 138 201 170 301 q 190 364 223 476 q 263 612 275 652 q 275 662 275 667 q 275 683 269 687 q 261 695 234 702 q 206 708 200 727 q 198 745 198 756 q 198 772 206 782 q 215 792 233 796 q 251 801 273 801 q 281 801 288 800 q 296 800 304 800 z m 415 644 q 411 648 404 644 q 397 641 394 632 q 369 565 353 514 q 333 450 320 390 q 322 381 329 381 l 480 381 q 489 382 492 384 q 500 388 497 396 q 492 411 452 540 q 425 627 415 644 z"},"f":{"x_min":0,"x_max":456,"ha":456,"o":"m 418 742 q 419 741 425 737 q 429 735 431 724 q 433 713 436 692 q 439 672 439 662 q 439 635 429 614 q 408 606 388 606 q 374 606 360 609 q 351 615 320 654 q 296 684 272 684 q 262 684 256 682 q 228 667 218 644 q 208 620 208 585 q 208 572 210 545 q 212 518 212 506 q 215 500 224 498 q 228 497 238 497 q 270 514 273 515 q 285 520 296 518 q 310 503 310 476 q 310 466 308 455 q 306 444 303 434 q 290 420 258 404 q 225 389 212 376 q 212 313 214 216 q 217 119 217 110 q 217 89 250 86 q 284 83 290 70 q 290 62 291 53 q 292 44 293 36 q 293 25 290 18 q 287 10 277 6 q 240 6 156 4 q 71 2 63 2 q 50 5 46 7 q 38 11 38 21 q 35 43 35 54 q 35 64 38 70 q 41 77 50 81 q 73 85 80 87 q 97 93 97 105 q 97 143 98 220 q 99 298 99 337 q 99 344 93 344 q 90 344 76 339 q 62 334 55 334 q 48 334 43 337 q 37 341 32 352 q 27 362 27 378 q 27 390 28 398 q 29 405 31 414 q 40 428 64 441 q 87 454 94 465 q 94 480 94 496 q 93 512 93 529 q 93 617 113 662 q 130 700 166 726 q 192 746 228 756 q 263 766 302 766 q 364 766 418 742 z"},"Q":{"x_min":0,"x_max":760,"ha":760,"o":"m 563 756 q 646 708 699 618 q 721 580 733 526 q 745 472 745 413 q 745 333 724 259 q 703 185 662 132 q 660 129 644 110 q 632 97 635 84 q 674 48 714 12 q 717 7 717 -2 q 717 -12 714 -21 q 684 -59 674 -67 q 657 -81 642 -81 q 638 -81 630 -79 q 609 -64 579 -33 q 554 -8 530 17 q 522 19 517 19 q 507 19 492 14 q 478 10 466 6 q 421 -3 378 -3 q 301 -3 236 24 q 172 51 118 109 q 85 142 64 182 q 42 222 32 266 q 16 331 16 401 q 16 502 53 588 q 90 674 167 732 q 208 766 263 784 q 318 801 379 801 q 481 801 563 756 z m 549 607 q 521 642 504 656 q 488 669 466 678 q 427 696 382 696 q 345 696 312 684 q 279 671 255 646 q 203 597 175 530 q 147 464 147 391 q 147 341 162 291 q 171 263 187 231 q 192 220 203 202 q 247 158 285 135 q 336 104 387 104 q 405 104 414 106 q 421 106 425 110 q 431 115 427 123 q 422 132 385 169 q 353 200 347 225 q 347 237 354 245 q 357 249 372 260 q 385 275 398 275 q 403 275 409 272 q 448 244 464 231 q 489 212 519 183 q 524 180 529 180 q 537 180 542 187 q 573 231 590 290 q 607 350 607 411 q 607 468 592 518 q 578 569 549 607 z"},"w":{"x_min":0,"x_max":912,"ha":912,"o":"m 53 516 l 171 516 q 197 516 221 516 q 245 516 250 514 q 255 513 262 506 q 270 499 271 492 q 271 484 271 480 q 271 465 270 456 q 268 448 262 440 q 240 434 230 430 q 211 422 211 401 q 221 358 239 311 q 267 237 295 163 q 298 159 300 157 q 304 153 309 155 q 329 200 356 274 q 392 371 400 392 q 402 406 398 414 q 395 423 382 429 q 367 432 358 434 q 350 436 344 443 q 340 455 340 472 q 340 489 344 501 q 354 511 357 513 q 366 519 375 516 q 396 516 418 516 q 440 516 462 517 q 499 517 522 516 q 545 514 571 510 q 582 506 586 498 q 589 491 589 478 q 588 462 588 454 q 586 436 561 431 q 536 426 532 413 l 532 387 q 573 265 617 157 q 618 155 620 153 q 622 150 625 152 l 639 175 l 717 384 q 720 393 720 401 q 720 417 703 426 q 691 430 680 435 q 668 440 666 450 q 664 459 663 466 q 662 474 662 482 q 662 494 666 502 q 678 514 684 514 q 719 514 766 514 q 813 515 872 516 q 882 512 886 502 q 889 491 889 475 q 889 460 889 454 q 886 436 860 426 q 835 417 830 400 q 799 326 758 213 q 723 116 688 19 q 683 7 668 2 q 654 -2 631 -2 q 623 -2 606 -1 q 589 0 581 0 q 570 0 562 5 q 553 10 548 23 q 534 58 508 127 q 488 181 468 235 q 464 246 453 240 q 436 201 410 134 q 393 89 369 24 q 364 10 350 4 q 337 -1 317 -1 q 310 -1 294 0 q 279 1 271 1 q 262 0 257 0 q 247 0 238 5 q 229 10 225 23 q 154 212 84 401 q 81 414 49 427 q 34 433 29 448 q 23 459 23 471 q 23 487 32 502 q 41 516 53 516 z"},"-":{"x_min":0,"x_max":450,"ha":450,"o":"m 67 454 q 131 454 210 454 q 290 455 384 456 q 391 456 393 456 q 394 456 397 456 q 407 453 414 446 q 420 439 425 429 q 425 425 426 412 q 427 400 427 393 q 427 373 418 361 q 416 359 408 357 q 401 355 397 354 l 64 354 q 58 354 50 362 q 41 369 41 376 q 41 412 44 433 q 48 454 67 454 z"},"E":{"x_min":0,"x_max":690,"ha":690,"o":"m 547 796 q 562 796 567 790 q 586 764 599 731 q 603 721 620 666 q 623 657 616 649 q 610 641 602 639 q 593 637 578 634 q 562 631 554 631 q 531 631 520 643 q 489 678 444 690 q 400 701 339 701 l 267 701 q 263 701 260 698 q 254 693 254 686 l 254 485 q 254 481 258 476 q 263 470 268 470 l 399 470 q 413 470 445 493 q 462 505 475 505 q 483 505 490 504 q 497 502 508 501 q 522 497 527 487 q 543 459 560 411 q 571 380 577 363 q 577 350 576 345 q 574 337 569 333 q 558 328 546 326 q 533 324 520 324 q 505 324 491 327 q 466 350 434 358 q 401 365 355 365 l 265 365 q 252 365 250 344 q 248 322 248 301 q 248 293 248 290 l 247 120 q 247 101 268 101 l 384 101 q 470 101 517 126 q 519 127 558 159 q 582 179 609 179 q 616 178 620 178 q 643 178 656 174 q 669 171 672 156 q 672 122 658 86 q 648 61 626 21 q 619 7 604 2 q 590 -2 567 -2 q 558 -2 549 -2 q 540 -1 531 -1 l 65 -1 q 55 -1 46 4 q 38 10 36 19 q 35 28 34 36 q 34 45 34 49 q 34 70 38 83 q 48 94 78 100 q 108 105 115 121 q 116 126 117 142 q 118 159 118 161 q 118 170 118 175 l 118 664 q 118 687 74 695 q 30 703 30 728 q 30 738 30 744 q 30 768 35 782 q 40 796 56 796 z"},"s":{"x_min":0,"x_max":462,"ha":462,"o":"m 135 509 q 169 520 222 520 q 278 520 330 510 q 381 499 398 486 q 410 478 414 467 q 419 456 419 439 q 419 426 416 408 q 414 391 413 384 q 406 377 394 374 q 382 371 372 371 q 360 371 350 372 q 339 372 332 373 q 320 382 293 406 q 251 444 223 444 q 215 444 204 441 q 171 438 160 410 q 156 403 156 391 q 156 385 158 375 q 177 343 220 327 q 257 315 295 304 q 355 285 383 268 q 431 238 437 191 q 443 170 443 152 q 443 131 436 112 q 428 92 413 71 q 376 33 328 16 q 279 -1 221 -1 q 198 -1 175 2 q 152 4 114 13 q 86 25 58 38 q 27 56 24 86 q 25 97 24 106 q 23 116 22 127 q 22 142 27 150 q 32 159 47 163 q 64 163 73 163 q 88 163 100 160 q 111 158 121 150 q 151 117 174 102 q 204 83 237 83 q 246 83 251 84 q 276 84 293 92 q 310 101 317 120 q 321 129 321 141 q 321 166 302 182 q 277 197 178 227 q 33 271 33 366 q 33 380 34 388 q 34 424 66 460 q 97 495 135 509 z"},"l":{"x_min":0,"x_max":294,"ha":294,"o":"m 232 766 q 240 767 244 767 q 255 767 256 752 q 257 733 257 722 q 257 702 251 695 q 225 681 218 656 q 210 631 210 593 q 210 582 210 577 l 210 110 q 210 88 229 81 q 246 79 253 76 q 260 73 268 62 q 270 44 270 36 q 270 17 261 4 q 253 -4 233 -4 q 220 -3 212 -2 q 203 -2 197 -3 q 180 -3 162 -3 q 145 -3 127 -4 q 120 -4 116 -4 q 76 -4 41 2 q 30 8 28 18 q 25 28 25 46 q 25 58 28 65 q 31 72 42 77 q 57 80 66 82 q 75 84 82 90 q 88 96 90 98 q 95 102 95 107 l 95 577 q 95 587 82 596 q 77 598 66 598 q 57 598 48 598 q 40 599 36 609 q 36 618 35 630 q 34 641 34 643 q 34 668 52 679 z"},"8":{"x_min":0,"x_max":678,"ha":678,"o":"m 221 781 q 280 797 340 797 q 432 797 501 766 q 579 731 606 666 q 613 650 616 634 q 619 617 619 597 q 619 561 607 527 q 595 493 570 464 q 567 458 543 441 q 523 427 525 413 q 581 390 615 341 q 649 292 649 234 q 649 115 550 46 q 509 20 455 6 q 401 -7 342 -7 q 228 -7 138 39 q 100 62 72 98 q 44 134 36 176 q 33 187 32 199 q 31 211 31 227 q 31 295 57 328 q 83 360 102 379 q 128 404 154 418 l 154 429 q 113 457 92 500 q 70 543 70 593 q 70 612 73 630 q 84 684 126 724 q 167 765 221 781 z m 475 623 q 466 646 454 658 q 449 663 427 679 q 392 698 346 698 q 299 698 263 677 q 207 644 207 579 q 207 566 212 542 q 216 519 240 496 q 264 473 297 466 q 326 458 352 458 q 418 458 457 501 q 472 514 479 533 q 486 552 486 573 q 486 601 475 623 z m 498 278 q 487 306 473 319 q 468 324 441 340 q 422 350 396 355 q 370 360 343 360 q 261 360 211 320 q 168 283 168 229 q 168 223 168 217 q 170 209 172 191 q 173 173 200 146 q 226 119 262 108 q 297 96 340 96 q 386 96 424 110 q 463 125 492 158 q 509 186 509 222 q 509 248 498 278 z"},"e":{"x_min":0,"x_max":528,"ha":528,"o":"m 395 495 q 440 476 467 438 q 485 412 485 380 q 485 361 475 345 q 470 331 452 320 q 434 308 426 303 q 395 285 279 228 q 226 202 191 182 q 183 175 183 167 q 183 160 187 154 q 238 97 310 97 q 318 97 329 98 q 340 100 346 101 q 371 106 402 122 q 433 138 463 154 q 481 158 491 138 q 495 128 500 119 q 500 97 481 77 q 456 55 445 46 q 409 24 374 11 q 339 -2 302 -2 q 292 -2 287 -2 q 254 -2 234 0 q 214 3 191 13 q 129 32 86 89 q 44 146 32 217 q 32 299 50 354 q 73 424 128 465 q 198 517 290 517 q 347 517 395 495 z m 322 421 q 315 431 277 431 q 239 431 216 421 q 139 377 139 292 q 140 283 140 278 q 140 268 155 268 q 179 279 225 302 q 271 325 293 336 q 310 348 318 353 q 334 364 340 376 q 345 388 338 399 q 327 413 322 421 z"},"b":{"x_min":0,"x_max":590,"ha":590,"o":"m 219 770 q 239 770 239 753 q 239 746 242 732 q 244 717 244 714 q 244 700 235 695 q 216 682 210 677 q 195 664 195 649 l 195 456 q 195 452 202 449 q 209 446 214 450 q 248 478 289 495 q 330 512 371 512 q 419 512 457 488 q 513 456 541 400 q 569 345 569 277 q 569 264 569 258 q 568 251 568 247 q 562 177 524 116 q 485 55 425 23 q 366 -5 293 -5 q 238 -5 186 12 q 133 29 94 61 q 64 85 64 123 q 64 129 66 139 q 74 169 78 194 q 83 219 83 243 l 82 584 q 82 590 76 596 q 71 602 64 604 q 45 601 36 601 q 32 601 27 604 q 17 617 17 636 q 17 655 26 669 q 35 680 50 688 q 56 691 78 700 q 148 735 219 770 z m 446 327 q 429 363 417 371 q 406 376 395 382 q 366 400 331 400 q 279 400 240 370 q 216 353 211 349 q 196 335 196 319 q 196 301 196 283 q 195 265 195 248 q 195 216 198 190 q 202 164 211 138 q 220 118 240 104 q 260 90 284 84 q 299 81 314 81 q 390 81 432 144 q 448 165 456 190 q 463 215 463 245 q 463 290 446 327 z"},"%":{"x_min":0,"x_max":768,"ha":768,"o":"m 182 799 q 190 799 194 799 q 239 799 284 769 q 324 742 344 705 q 354 686 359 664 q 364 641 364 615 q 364 565 345 530 q 324 486 282 465 q 241 444 187 444 q 97 444 52 519 q 37 540 28 568 q 20 596 20 625 q 20 670 36 703 q 56 743 94 767 q 133 791 182 799 z m 590 791 q 598 795 610 795 q 631 795 650 782 q 670 770 672 760 q 677 752 677 740 q 677 735 675 727 q 592 603 514 490 q 432 372 350 255 q 248 108 187 19 q 181 12 178 9 q 168 -2 160 -2 q 135 8 121 18 q 100 33 93 52 q 92 54 94 72 q 216 252 339 432 q 468 620 590 791 z m 567 364 q 616 364 660 340 q 703 315 727 273 q 751 231 751 179 q 751 129 727 88 q 706 48 664 24 q 621 1 568 1 q 525 8 498 21 q 464 38 441 69 q 405 117 405 181 q 405 217 418 254 q 435 299 478 332 q 520 364 567 364 z m 253 686 q 232 718 225 724 q 218 731 201 733 q 192 736 184 736 q 158 736 133 711 q 121 698 116 682 q 111 665 111 646 q 111 623 116 606 q 120 589 131 564 q 142 540 158 526 q 178 508 203 508 q 223 508 238 516 q 253 523 261 540 q 277 568 277 604 q 277 651 253 686 z m 639 243 q 625 275 608 284 q 590 292 559 292 q 537 290 522 276 q 506 261 502 246 q 498 232 497 222 q 496 211 496 198 q 496 138 529 97 q 544 82 558 74 q 573 66 590 66 q 603 66 617 74 q 633 86 641 91 q 662 120 662 156 q 662 191 639 243 z"},"m":{"x_min":0,"x_max":904,"ha":904,"o":"m 100 479 q 129 499 152 509 q 174 519 186 519 q 201 519 201 506 q 201 467 203 458 q 205 448 213 452 q 250 472 288 492 q 329 511 373 511 q 414 511 448 492 q 462 484 475 471 q 480 465 500 441 l 507 441 q 544 472 587 491 q 630 510 672 510 q 717 510 754 487 q 790 468 804 435 q 818 402 818 354 l 818 107 q 818 92 846 84 q 875 77 880 63 q 885 49 885 37 q 885 20 878 9 q 870 -2 854 -2 q 836 -2 828 -2 q 813 -2 806 -2 q 793 -2 787 -2 q 776 -2 771 -2 q 762 -2 757 -2 q 749 -2 745 -2 q 727 -2 708 -2 q 690 -1 671 -1 q 664 -1 660 -1 q 644 9 643 20 q 640 31 640 41 q 640 60 650 74 q 654 80 679 84 q 704 89 704 106 l 704 337 q 704 371 673 387 q 661 392 648 394 q 635 396 622 396 q 594 396 567 386 q 540 377 516 359 q 511 355 511 346 l 511 110 q 511 89 539 84 q 567 78 572 66 q 573 45 573 34 q 573 20 572 16 q 568 1 554 1 l 353 1 q 346 1 338 8 q 337 9 331 18 q 329 36 329 46 q 329 71 345 80 q 368 83 384 86 q 399 89 399 104 l 399 275 q 399 318 395 346 q 391 374 374 386 q 364 394 350 398 q 335 402 319 402 q 300 402 277 395 q 241 384 226 373 q 201 355 201 326 l 201 112 q 201 92 227 88 q 253 83 259 71 q 265 53 265 32 q 265 16 261 8 q 257 0 246 0 q 205 0 154 0 q 103 1 43 2 q 32 2 27 12 q 22 23 22 39 q 22 54 26 69 q 31 84 62 88 q 92 92 92 107 l 92 337 q 92 346 85 354 q 78 361 71 362 q 57 360 49 360 q 27 360 27 378 q 27 413 46 435 q 57 448 100 479 z"},",":{"x_min":0,"x_max":210,"ha":210,"o":"m 89 164 q 101 164 106 164 q 116 164 124 161 q 131 158 148 145 q 166 132 172 114 q 179 97 179 74 q 179 66 178 58 q 177 49 177 45 q 158 -5 144 -29 q 122 -65 89 -90 q 85 -92 78 -92 q 57 -92 42 -70 q 40 -54 54 -28 q 67 -3 67 11 q 67 19 66 23 q 52 41 43 59 q 31 82 31 101 q 31 111 35 124 q 39 136 55 148 q 71 159 89 164 z"},"n":{"x_min":0,"x_max":624,"ha":624,"o":"m 160 515 q 171 516 175 516 q 185 516 194 506 q 199 497 201 478 q 203 460 204 454 q 210 448 214 448 q 217 448 223 452 q 236 461 240 461 q 286 495 312 506 q 337 516 366 516 q 400 516 442 499 q 484 482 504 463 q 521 447 526 416 q 530 385 532 340 q 534 295 534 242 q 534 231 534 226 q 534 216 534 211 q 534 203 534 198 q 534 179 534 160 q 533 141 533 122 q 533 115 533 111 q 533 88 562 81 q 591 74 596 64 q 598 43 598 31 q 598 19 597 15 q 593 0 578 0 q 544 0 510 -1 q 476 -2 443 -3 q 408 -3 385 -1 q 362 1 360 12 q 357 22 357 29 q 357 42 357 56 q 360 72 390 78 q 419 84 419 100 l 419 338 q 418 350 410 362 q 408 366 394 383 q 384 391 368 395 q 353 399 340 399 q 318 399 292 390 q 267 382 245 369 q 229 358 221 350 q 208 338 205 325 l 205 114 q 205 104 210 96 q 215 89 225 81 q 242 78 252 76 q 262 75 265 67 q 268 59 268 51 q 268 43 269 38 q 269 23 266 6 l 251 -6 l 50 -7 q 37 0 32 13 q 32 27 32 42 q 33 57 38 68 q 42 71 62 76 q 83 82 89 95 q 96 102 96 114 l 96 324 q 96 336 88 344 q 81 353 69 353 q 54 351 47 351 q 35 351 31 364 q 23 376 23 385 q 23 394 35 410 q 51 431 90 465 q 110 483 120 491 q 134 499 160 515 z"},"h":{"x_min":0,"x_max":608,"ha":608,"o":"m 225 779 q 234 783 238 776 q 243 770 248 754 q 252 737 252 725 q 252 703 238 697 q 214 686 207 660 q 200 635 200 598 q 200 583 200 576 l 200 455 q 200 450 202 447 q 205 444 210 448 q 253 477 292 493 q 341 513 383 513 q 431 513 469 488 q 500 469 514 433 q 527 397 527 353 l 527 113 q 527 104 532 94 q 538 85 548 82 q 558 80 569 78 q 580 77 586 67 q 589 60 589 46 q 589 30 584 10 q 575 4 566 -1 l 489 -1 q 478 -1 472 -1 q 462 -1 458 -1 q 450 -1 445 -1 q 423 -1 402 0 q 380 1 366 3 q 353 5 350 12 q 347 20 347 32 q 347 41 348 49 q 349 57 351 67 q 358 75 383 84 q 408 93 411 111 q 411 148 413 236 q 415 324 415 330 q 415 352 402 370 q 389 389 371 395 q 353 401 332 401 q 298 401 265 384 q 237 370 205 342 q 199 338 199 335 l 199 116 q 199 103 204 92 q 208 82 220 82 q 237 82 246 79 q 256 76 264 62 q 265 56 265 45 q 265 32 262 24 q 260 15 254 8 q 249 1 240 -1 q 190 -1 140 -1 q 90 -1 39 -2 q 34 -2 26 5 q 18 12 17 17 q 17 31 18 47 q 18 63 25 75 q 30 80 52 85 q 74 90 78 101 q 81 112 82 126 q 83 139 83 154 l 83 586 q 83 596 78 602 q 73 608 57 608 q 47 608 38 608 q 29 610 24 622 q 20 634 20 648 q 20 662 28 676 q 70 705 122 731 q 162 751 225 779 z"},"z":{"x_min":0,"x_max":479,"ha":479,"o":"m 337 515 q 358 515 370 515 q 420 515 436 509 q 453 503 453 491 q 454 469 454 458 q 454 438 450 422 q 447 407 438 394 q 376 329 315 259 q 273 210 195 117 q 190 113 187 108 q 183 102 188 100 l 198 95 q 208 95 229 94 q 250 93 260 93 q 298 93 319 100 q 348 110 368 137 q 374 142 386 146 q 398 149 419 149 q 434 149 441 149 q 465 145 465 127 q 465 110 465 92 q 465 75 466 57 q 466 44 466 31 q 464 20 464 16 q 461 8 456 5 q 452 3 441 1 q 378 1 246 0 q 115 -1 49 -1 q 31 -1 25 11 q 25 18 24 35 q 23 52 23 61 q 23 88 30 106 q 37 125 58 140 q 117 205 177 270 q 242 343 289 406 q 291 409 289 411 q 287 412 274 414 q 262 416 240 416 q 203 416 177 406 q 151 396 129 371 q 114 369 110 368 q 102 367 90 367 q 66 367 51 374 l 44 386 l 44 441 q 44 454 44 466 q 44 479 46 490 q 47 501 51 507 q 55 513 58 513 q 106 513 199 514 q 292 515 337 515 z"},"B":{"x_min":0,"x_max":690,"ha":690,"o":"m 362 800 q 457 800 526 761 q 588 726 608 671 q 623 633 623 591 q 623 555 612 524 q 600 494 574 470 q 569 465 548 452 q 528 439 528 433 q 528 429 533 426 q 561 409 590 392 q 622 370 637 346 q 652 321 660 290 q 669 259 669 228 q 669 176 651 134 q 617 51 526 21 q 462 0 345 0 l 52 0 q 42 0 34 6 q 27 11 25 21 q 24 39 24 49 q 24 60 26 69 q 28 78 34 85 q 43 92 72 96 q 102 101 109 121 q 112 129 113 144 q 114 158 114 172 l 114 634 q 114 654 110 664 q 107 673 100 680 q 92 686 60 692 q 27 699 21 720 q 20 727 20 734 q 20 742 20 745 q 20 761 22 768 q 23 775 29 786 q 32 791 34 794 q 39 800 45 800 z m 472 637 q 459 664 419 678 q 371 695 281 695 q 268 695 256 692 q 244 689 244 683 l 244 479 q 244 463 260 463 q 272 463 299 462 q 326 461 339 461 q 388 461 416 471 q 453 484 472 519 q 487 545 487 579 q 487 613 472 637 z m 498 319 q 476 343 432 350 q 389 358 261 358 q 255 358 251 357 q 244 355 244 350 l 244 115 q 244 104 257 104 q 280 104 304 104 q 327 103 351 103 q 359 103 363 103 q 396 103 409 104 q 422 106 444 111 q 472 119 496 142 q 520 165 526 194 q 532 214 532 232 q 532 282 498 319 z"},"K":{"x_min":0,"x_max":755,"ha":755,"o":"m 86 800 q 154 800 232 800 q 310 800 314 799 q 334 793 336 778 q 339 763 339 755 q 339 745 337 734 q 335 724 332 715 q 323 704 284 700 q 244 695 244 676 l 244 455 q 244 449 252 449 q 263 449 267 455 q 306 493 358 548 q 436 631 448 643 q 471 660 465 685 q 460 697 438 707 q 417 717 414 733 q 412 749 412 759 q 412 780 422 793 q 434 800 438 800 l 700 800 q 707 800 715 791 q 723 782 724 768 q 726 755 728 736 q 728 715 718 708 q 708 702 688 699 q 667 696 660 689 q 614 646 554 586 q 510 542 449 479 q 449 454 469 426 q 489 398 508 373 q 547 313 582 259 q 637 175 657 145 q 705 70 730 29 q 737 18 723 2 q 713 -10 697 -20 q 682 -35 664 -35 q 658 -35 652 -32 q 648 -30 578 60 q 508 151 439 240 q 361 341 344 359 q 339 364 335 359 q 293 324 275 307 q 241 275 241 263 l 241 131 q 241 100 291 98 q 341 96 349 72 q 350 51 350 41 q 350 29 349 24 q 347 16 341 10 q 339 7 334 5 q 327 2 324 -1 q 258 -1 189 0 q 120 1 52 2 q 31 5 23 24 q 23 29 21 43 q 19 57 19 65 q 19 77 22 85 q 26 93 36 98 q 53 100 70 102 q 88 106 100 116 q 111 127 111 138 q 111 225 111 312 q 111 400 112 488 q 112 576 113 665 q 113 690 86 702 q 66 705 50 707 q 35 709 29 723 q 28 734 28 742 q 27 751 27 757 q 27 779 28 786 q 30 793 35 796 q 39 798 52 799 q 65 800 73 800 q 82 800 86 800 z"},"R":{"x_min":0,"x_max":732,"ha":732,"o":"m 59 800 q 163 800 254 799 q 345 798 423 797 q 468 797 504 786 q 541 774 573 743 q 645 673 645 580 q 645 567 645 554 q 642 542 641 537 q 632 480 565 426 q 551 414 493 374 q 471 359 476 352 q 507 311 558 243 q 595 193 635 138 q 669 91 712 31 q 714 29 715 25 q 716 22 716 20 q 716 15 710 8 q 703 2 697 -3 q 683 -13 671 -18 q 659 -23 642 -23 q 633 -23 622 -14 q 572 42 512 112 q 478 152 402 238 q 323 328 289 364 q 280 367 272 367 q 264 367 256 365 q 248 363 247 359 q 247 358 246 354 l 246 136 q 246 103 296 101 q 346 99 352 73 q 353 65 355 58 q 356 52 356 43 q 356 23 346 6 q 341 0 331 0 l 45 0 q 24 0 22 15 q 19 30 19 36 q 19 49 21 58 q 23 67 29 80 q 35 92 73 100 q 111 107 111 133 l 110 663 q 110 672 102 682 q 93 693 82 697 q 59 701 47 703 q 25 708 21 722 q 17 737 17 750 q 17 775 28 788 q 40 800 59 800 z m 494 621 q 483 668 434 686 q 399 699 331 699 q 312 699 294 698 q 276 698 258 698 q 248 698 248 689 l 248 481 q 248 466 259 466 q 273 466 283 466 q 293 466 300 466 q 360 466 399 471 q 438 476 466 495 q 484 507 492 527 q 501 547 501 572 q 501 583 499 596 q 497 608 494 621 z"},"T":{"x_min":0,"x_max":680,"ha":680,"o":"m 71 780 q 87 797 108 797 q 126 797 148 786 q 169 774 193 762 q 248 762 355 761 q 462 760 515 760 q 531 760 552 771 q 600 796 617 796 q 625 796 633 794 q 641 791 648 786 q 656 781 658 771 q 665 767 658 751 q 655 743 638 691 q 626 653 617 628 q 609 619 596 614 q 583 610 568 610 q 560 610 550 612 q 539 613 534 614 q 527 619 512 637 q 496 655 482 658 q 472 658 460 659 q 449 660 443 660 q 434 660 426 660 q 413 658 407 658 q 402 658 398 654 q 397 653 395 649 l 395 129 q 395 98 443 95 q 491 92 499 69 q 501 47 501 36 q 501 22 498 14 q 494 6 482 2 q 475 2 464 0 q 454 -3 451 -3 q 407 -3 318 -2 q 229 -1 185 -1 q 167 -1 162 16 q 161 18 160 28 q 158 37 158 43 q 158 61 168 77 q 178 89 224 96 q 270 102 270 129 l 270 652 l 254 661 q 236 663 228 663 q 192 663 160 650 q 128 638 101 614 q 84 609 66 609 q 41 609 25 619 q 19 627 19 640 q 19 650 22 658 q 24 663 40 714 q 57 765 71 780 z"},"P":{"x_min":0,"x_max":644,"ha":644,"o":"m 476 787 q 507 783 546 752 q 585 721 604 687 q 630 639 630 577 q 630 509 599 460 q 546 369 435 365 q 324 361 251 359 l 244 346 l 244 142 q 245 131 254 122 q 256 119 273 107 q 286 98 312 97 q 338 96 351 79 q 359 69 359 35 q 359 19 356 10 q 352 0 343 0 l 51 -1 q 40 -1 32 4 q 25 9 25 20 q 21 29 21 42 q 21 51 22 56 q 23 63 29 77 q 37 89 60 92 q 82 96 92 103 q 103 110 106 122 q 110 134 110 153 l 110 655 q 110 665 101 676 q 92 687 81 692 q 56 695 44 697 q 22 702 17 719 q 16 728 16 744 q 16 767 25 784 q 28 785 33 792 q 38 800 40 800 l 154 800 q 260 800 338 798 q 417 795 476 787 z m 479 629 q 464 670 424 686 q 395 698 345 698 q 326 698 308 697 q 291 696 275 695 q 266 695 257 695 q 245 693 241 686 q 241 633 242 580 q 243 528 244 477 q 247 467 249 466 q 265 466 304 464 q 344 462 348 462 q 391 462 417 471 q 451 483 471 513 q 487 538 487 577 q 487 603 479 629 z"},"t":{"x_min":0,"x_max":336,"ha":336,"o":"m 170 648 q 177 652 188 646 q 199 641 199 632 q 200 622 200 612 q 200 601 200 591 q 200 568 200 544 q 201 520 205 501 q 206 494 213 494 q 219 494 222 495 q 227 498 228 499 q 240 506 252 512 q 264 519 274 519 q 279 519 282 518 q 291 515 294 507 q 298 499 298 485 q 298 473 297 462 q 296 451 295 441 q 292 432 286 427 q 268 419 259 415 q 253 410 227 395 q 207 384 201 368 q 201 348 200 306 q 199 264 199 243 q 199 181 206 128 q 207 120 218 113 q 220 112 238 102 q 246 97 257 97 q 276 99 284 99 q 298 99 304 94 q 310 88 313 77 q 317 72 317 64 q 317 55 310 39 q 279 20 251 10 q 223 1 191 1 q 170 1 146 8 q 121 15 103 38 q 85 60 83 84 q 83 148 83 212 q 83 277 84 341 q 79 344 74 344 q 68 344 56 340 q 44 336 39 336 q 28 336 24 350 q 24 361 23 369 q 19 400 19 403 q 19 418 26 426 q 50 439 63 446 q 88 459 88 483 q 88 503 88 523 q 87 543 87 564 q 87 590 90 599 q 92 608 120 624 q 133 632 170 648 z"},"M":{"x_min":0,"x_max":942,"ha":942,"o":"m 677 800 l 806 800 q 833 800 858 800 q 884 800 887 798 q 893 796 899 795 q 905 792 910 779 q 914 766 914 749 q 914 728 908 716 q 899 707 862 700 q 826 694 826 674 l 826 144 q 826 130 834 119 q 842 108 854 103 q 879 99 894 96 q 910 92 914 75 q 919 62 919 47 q 919 23 908 11 q 901 2 890 0 q 878 -1 860 -1 l 634 -1 q 625 -1 618 8 q 612 17 610 28 q 610 43 610 59 q 611 75 615 88 q 621 93 657 99 q 693 105 693 129 l 693 578 q 693 584 688 587 q 682 590 679 584 q 660 521 626 398 q 617 364 575 212 q 555 141 523 25 q 515 10 501 6 q 487 1 465 1 q 454 1 444 1 q 433 1 424 2 q 414 7 409 12 q 404 18 399 28 q 365 137 342 216 q 336 236 287 406 q 260 500 233 595 q 230 595 227 595 q 221 591 221 586 l 221 140 q 221 116 247 104 q 273 99 290 96 q 308 92 311 70 q 309 46 308 23 q 304 9 289 2 q 247 2 147 0 q 47 -2 42 -2 q 33 -2 26 7 q 20 16 19 24 q 19 29 17 42 q 15 55 15 62 q 15 79 24 88 q 32 96 68 103 q 105 110 105 134 l 105 661 q 105 671 97 680 q 89 690 75 698 q 47 705 20 713 q 10 727 10 746 q 10 768 24 787 q 25 788 29 794 q 32 799 36 799 q 57 799 67 799 q 85 799 94 799 q 110 799 118 799 q 132 799 139 799 q 151 799 157 799 q 168 799 173 799 q 182 799 187 799 q 195 799 199 799 q 217 799 236 799 q 254 799 273 800 q 280 800 284 800 q 291 800 304 787 q 312 780 317 776 q 319 771 369 591 q 410 447 427 386 q 455 288 461 279 q 464 275 468 282 q 473 289 475 300 q 496 380 517 460 q 530 508 560 618 q 580 689 604 774 q 613 787 627 793 q 632 795 677 800 z"},"g":{"x_min":0,"x_max":522,"ha":522,"o":"m 435 609 q 439 608 448 608 q 462 609 469 609 q 487 609 492 604 q 498 598 498 588 q 498 576 499 564 q 500 553 501 542 q 501 530 498 522 q 494 513 483 505 q 478 503 473 502 q 468 501 463 501 q 452 501 424 510 q 408 515 400 515 q 383 515 372 505 q 372 502 370 498 q 370 497 367 493 q 413 462 438 418 q 462 373 462 321 q 462 271 435 230 q 408 188 364 165 q 334 151 304 142 q 275 134 244 134 q 235 134 224 136 q 214 137 208 138 q 187 138 178 117 q 175 111 175 106 q 175 94 187 85 q 203 81 218 80 q 234 79 255 79 q 270 79 300 80 q 329 81 342 81 q 397 81 428 70 q 470 55 493 14 q 502 -13 502 -38 q 502 -73 485 -101 q 451 -152 394 -178 q 342 -201 278 -201 q 274 -200 267 -200 q 246 -202 235 -202 q 227 -202 223 -201 q 133 -201 53 -153 q 41 -142 30 -132 q 22 -122 22 -100 q 22 -63 42 -49 q 56 -39 86 -39 q 93 -39 102 -40 q 112 -40 123 -41 q 136 -48 172 -84 q 202 -113 225 -118 q 235 -119 244 -120 q 254 -120 267 -120 q 299 -120 321 -114 q 343 -108 363 -91 q 370 -86 374 -78 q 377 -69 379 -57 q 379 -35 358 -26 q 347 -21 342 -20 q 334 -17 326 -17 q 317 -16 306 -16 q 296 -16 290 -16 q 264 -16 222 -18 q 179 -21 172 -21 q 131 -21 101 -12 q 79 0 67 13 q 52 30 52 53 q 49 70 58 89 q 66 108 79 122 q 82 126 108 145 q 119 153 125 162 q 122 168 121 172 q 84 202 66 240 q 47 278 47 322 q 47 343 50 370 q 54 398 82 436 q 110 474 150 495 q 204 519 261 519 q 268 519 276 518 q 285 517 290 517 q 322 547 355 577 q 395 609 435 609 z m 326 391 q 313 413 304 422 q 300 426 268 442 q 254 444 247 444 q 215 444 194 430 q 172 415 162 392 q 152 370 152 345 q 152 331 155 317 q 162 277 180 250 q 202 217 237 210 q 243 209 253 209 q 296 209 326 241 q 336 253 341 272 q 346 290 346 308 q 346 328 340 351 q 334 374 326 391 z"},"j":{"x_min":0,"x_max":408,"ha":408,"o":"m 314 719 q 322 722 325 723 q 332 726 336 726 q 343 726 343 706 q 342 696 342 691 q 342 684 343 666 q 344 649 344 640 q 344 618 340 604 q 335 590 319 580 q 303 570 271 555 q 246 543 221 532 q 202 529 197 547 q 196 554 195 567 q 194 580 194 592 q 194 606 194 620 q 194 634 195 649 q 194 654 243 681 q 278 700 314 719 z m 368 522 q 376 526 384 517 q 393 508 393 502 q 393 486 393 478 q 393 463 391 459 q 387 451 361 423 q 344 404 344 385 l 344 -51 q 344 -86 324 -116 q 303 -146 269 -164 q 245 -178 215 -186 q 185 -193 153 -193 q 87 -193 40 -163 q 25 -154 16 -134 q 8 -114 8 -95 q 8 -73 17 -62 q 20 -59 27 -54 q 34 -50 46 -47 q 58 -44 69 -44 q 98 -44 110 -63 q 129 -86 139 -96 q 157 -116 175 -116 q 178 -116 186 -114 q 214 -101 223 -67 q 228 -48 228 -4 l 228 340 q 228 347 224 352 q 219 358 214 358 q 201 357 194 357 q 183 357 177 362 q 169 378 169 400 q 169 422 182 429 q 231 454 274 476 q 326 502 368 522 z"},"i":{"x_min":0,"x_max":290,"ha":290,"o":"m 182 720 q 198 728 202 728 q 212 728 212 703 q 212 692 214 667 q 217 642 217 636 q 217 619 214 607 q 210 595 201 587 q 178 568 146 552 q 137 548 86 526 q 80 524 70 530 q 61 537 61 542 q 61 555 56 582 q 51 609 51 622 q 51 647 65 658 q 87 677 122 694 q 131 698 182 720 z m 222 519 q 232 521 237 521 q 248 521 248 506 q 249 483 249 473 q 249 454 243 444 q 222 427 214 419 q 199 405 199 391 l 199 119 q 199 108 204 99 q 208 90 220 86 q 250 81 251 80 q 260 75 261 64 q 261 57 261 50 q 261 42 262 34 q 262 20 261 16 q 257 0 243 0 l 49 0 q 43 0 36 8 q 29 15 28 20 q 26 42 26 53 q 26 76 40 83 q 70 87 71 87 q 90 93 90 109 l 90 332 q 90 339 85 344 q 80 349 72 351 q 68 352 59 352 q 43 352 40 353 q 31 356 28 370 q 26 384 26 392 q 26 411 34 422 q 73 446 127 473 q 174 496 222 519 z"},"y":{"x_min":0,"x_max":612,"ha":612,"o":"m 53 515 q 110 515 176 515 q 243 515 246 514 q 253 509 259 504 q 265 498 265 493 q 267 486 267 472 q 267 455 262 444 q 257 440 226 431 q 204 425 202 404 q 200 399 204 379 l 303 173 q 309 167 316 172 q 322 178 323 185 q 345 227 370 284 q 390 328 413 383 q 416 401 416 402 q 416 407 413 412 q 406 428 381 433 q 356 438 353 452 q 352 469 352 479 q 352 499 361 510 q 370 513 379 516 l 565 516 q 575 516 583 506 q 587 501 587 495 q 588 490 588 484 q 588 477 588 471 q 588 460 586 451 q 584 442 577 436 q 563 429 549 423 q 535 415 527 402 q 479 296 431 190 q 379 74 340 -26 q 329 -43 329 -68 q 329 -80 332 -89 q 339 -109 378 -116 q 416 -124 416 -147 q 416 -153 413 -164 q 413 -177 409 -186 q 405 -196 393 -197 q 348 -197 302 -198 q 256 -199 212 -200 q 197 -193 194 -181 q 190 -169 190 -162 q 190 -154 190 -150 q 190 -109 223 -50 q 247 -7 254 10 q 254 21 249 31 q 213 115 164 219 q 120 312 76 405 q 69 421 47 429 q 25 437 19 450 q 19 462 19 469 q 19 484 20 492 q 22 499 29 507 q 36 515 53 515 z"},".":{"x_min":0,"x_max":192,"ha":192,"o":"m 18 78 q 18 108 39 129 q 60 150 90 150 q 120 150 141 129 q 162 108 162 78 q 162 48 141 27 q 120 6 90 6 q 60 6 39 27 q 18 48 18 78 z"},"p":{"x_min":0,"x_max":610,"ha":610,"o":"m 74 474 q 116 501 140 513 q 164 525 175 525 q 185 525 189 518 q 193 507 195 503 q 201 495 201 478 q 201 456 207 449 q 212 449 217 449 q 253 480 290 497 q 334 517 377 517 q 394 517 403 516 q 407 516 420 512 q 479 497 524 442 q 569 388 578 328 q 581 313 582 290 q 583 268 583 265 q 583 192 556 136 q 526 74 466 37 q 439 17 404 6 q 368 -4 329 -4 q 267 -4 217 22 q 202 24 200 6 q 200 -9 199 -35 q 198 -61 198 -81 q 201 -91 207 -100 q 213 -109 221 -111 q 227 -114 248 -114 q 270 -114 278 -127 q 285 -140 285 -157 q 285 -165 284 -170 q 282 -178 276 -191 q 269 -198 262 -198 q 227 -198 154 -199 q 81 -200 40 -200 q 28 -200 26 -184 q 26 -176 25 -166 q 24 -156 23 -146 q 23 -133 26 -126 q 30 -119 40 -116 q 57 -114 67 -110 q 77 -106 83 -93 q 86 -79 86 -62 q 86 -56 85 -53 q 85 13 84 144 q 83 274 83 343 q 80 353 74 357 q 68 361 61 361 q 46 359 40 359 q 29 359 24 367 q 20 375 16 383 q 13 391 13 398 q 13 413 26 432 q 40 451 74 474 z m 464 322 q 444 356 424 373 q 405 390 377 400 q 362 403 347 403 q 305 403 268 384 q 230 364 204 329 q 202 302 201 288 q 200 274 200 262 q 200 206 211 165 q 217 136 242 114 q 268 92 297 84 q 312 81 328 81 q 370 81 406 100 q 441 120 462 154 q 480 201 480 249 q 480 272 476 289 q 473 306 464 322 z"},"X":{"x_min":0,"x_max":760,"ha":760,"o":"m 508 800 l 564 800 q 645 800 676 797 q 707 794 712 789 q 723 777 723 760 q 723 750 720 742 q 717 733 712 723 q 706 713 685 708 q 664 703 654 698 q 645 692 630 676 q 619 664 615 659 q 551 568 537 547 q 498 490 463 436 q 461 417 483 386 q 508 356 510 353 q 587 243 665 133 q 675 116 707 105 q 739 94 748 74 q 756 55 756 38 q 756 22 748 10 q 740 -1 729 -1 l 463 -1 q 447 2 440 6 q 433 10 429 24 q 425 39 425 52 q 425 69 432 81 q 439 93 467 99 q 495 105 499 124 q 501 144 482 170 q 456 206 454 211 q 415 260 377 310 q 371 317 364 310 q 331 269 304 230 q 273 185 251 143 q 248 137 248 128 q 248 119 255 110 q 262 102 286 98 q 310 94 321 77 q 329 64 329 46 q 329 29 321 18 q 309 2 276 0 q 243 -1 217 -1 l 139 -1 q 126 -1 119 -1 q 74 -1 52 0 q 29 2 25 5 q 15 13 10 23 q 5 33 5 43 q 5 54 7 61 q 8 66 16 80 q 23 94 52 104 q 81 114 91 126 q 137 187 194 270 q 244 343 295 417 q 292 430 292 438 l 120 673 q 111 690 68 702 q 26 714 26 746 q 26 754 27 764 q 28 775 31 784 q 34 793 42 796 q 51 798 84 798 q 117 799 139 800 q 164 800 173 800 l 245 800 q 269 800 292 800 q 315 800 334 798 q 346 798 350 789 q 355 780 355 765 q 355 747 350 733 q 344 719 316 708 q 288 697 288 683 q 288 674 292 665 q 306 638 333 602 q 355 571 378 541 q 397 544 414 571 q 426 590 432 596 q 435 603 460 637 q 479 664 479 682 q 479 686 477 696 q 470 708 446 711 q 423 714 414 728 q 406 742 406 759 q 406 776 416 789 q 422 795 438 798 q 453 800 473 800 q 498 800 508 800 z"},"*":{"x_min":0,"x_max":288,"ha":288,"o":"m 141 776 q 157 780 173 755 q 176 750 176 744 q 173 728 173 721 q 173 715 177 711 q 199 727 200 728 q 209 733 219 733 q 225 733 228 732 q 235 732 242 726 q 248 719 250 708 q 252 698 246 688 q 239 679 228 672 q 213 670 211 669 q 204 667 198 659 q 201 656 230 644 q 252 635 250 619 q 250 609 247 603 q 241 591 228 584 q 215 580 200 590 q 185 601 173 611 q 170 607 170 598 q 173 581 173 572 q 173 562 165 552 q 157 543 141 543 q 132 543 127 548 q 120 549 113 562 q 110 568 110 574 q 110 578 112 589 q 115 600 113 604 q 105 608 96 602 q 88 595 81 590 q 74 586 66 586 q 55 586 45 597 q 40 602 38 611 q 36 620 38 626 q 46 643 66 649 q 85 655 91 659 q 85 668 65 674 q 45 680 39 694 q 38 706 40 714 q 41 721 52 728 q 62 735 73 735 q 80 735 83 732 q 88 730 96 722 q 105 715 108 715 q 113 715 116 722 q 112 734 112 745 q 112 757 119 761 q 121 766 128 769 q 134 772 141 776 z"},"Y":{"x_min":0,"x_max":771,"ha":771,"o":"m 698 800 q 711 800 724 800 q 739 798 744 786 q 750 775 750 756 q 750 743 747 728 q 739 711 711 706 q 683 700 672 683 q 665 676 658 664 q 650 651 646 645 q 608 565 570 486 q 533 406 494 324 q 456 243 420 164 q 419 161 419 154 q 419 138 427 122 q 438 104 478 103 q 518 102 523 78 q 523 68 526 48 q 530 28 530 24 q 530 1 510 1 q 446 1 367 0 q 288 -2 285 -2 q 270 -2 264 16 q 257 33 257 62 q 257 79 259 92 q 261 105 265 120 q 290 179 316 239 l 318 256 q 212 462 107 668 q 97 696 63 700 q 29 704 26 720 q 24 737 24 745 q 24 769 31 785 q 38 801 48 801 l 302 801 q 312 801 320 798 q 328 794 334 787 q 338 776 338 762 q 338 747 336 736 q 334 726 333 720 q 327 714 294 700 q 271 690 268 669 q 270 664 270 654 q 270 645 271 643 q 328 529 385 416 q 388 410 393 408 q 397 407 400 411 q 430 467 476 562 q 506 623 519 651 q 519 659 519 663 q 519 671 518 679 q 518 687 514 695 q 506 703 477 710 q 448 716 446 733 q 443 750 443 761 q 443 782 452 790 q 460 797 480 798 q 500 800 517 800 q 533 800 540 800 z"},"c":{"x_min":0,"x_max":465,"ha":465,"o":"m 261 513 q 272 513 284 513 q 295 513 307 514 q 340 514 358 510 q 377 506 387 493 q 397 480 400 464 q 404 448 404 425 q 404 415 404 405 q 403 395 403 385 q 397 377 388 374 q 378 370 367 370 q 350 371 342 371 q 333 371 328 370 q 286 400 282 402 q 255 417 230 417 q 216 417 195 410 q 174 403 152 380 q 131 356 126 328 q 121 300 121 278 q 121 238 134 202 q 148 167 176 139 q 196 120 222 110 q 248 101 280 101 q 314 101 344 111 q 351 113 376 124 q 400 135 413 135 q 417 135 425 133 q 448 115 448 94 q 448 90 447 87 q 415 43 370 20 q 325 -2 275 -2 q 267 -4 257 -4 q 247 -4 242 -4 q 183 -4 134 24 q 85 53 56 105 q 36 134 26 172 q 16 209 16 249 q 16 313 40 364 q 70 430 130 472 q 191 513 261 513 z"},"!":{"x_min":0,"x_max":216,"ha":216,"o":"m 171 791 q 176 789 179 781 q 180 779 181 774 q 181 704 172 608 q 163 511 154 414 q 146 318 146 247 q 141 226 129 222 q 124 222 114 221 q 103 220 99 220 q 83 220 76 228 q 74 231 72 236 q 71 239 69 247 q 69 318 60 412 q 50 507 40 606 q 30 706 30 769 q 30 789 53 794 q 76 800 106 800 q 141 800 171 791 z m 130 141 q 147 136 151 134 q 160 128 170 112 q 180 90 180 69 q 180 52 172 37 q 164 22 148 14 q 132 6 112 4 q 87 4 68 14 q 49 24 43 45 q 36 56 36 74 q 36 101 52 117 q 79 144 111 144 q 119 144 130 141 z"},"/":{"x_min":0,"x_max":648,"ha":648,"o":"m 551 795 q 569 789 593 770 q 617 751 617 743 l 616 726 q 535 605 454 488 q 372 371 290 254 q 185 104 126 18 q 124 11 116 6 q 109 2 99 1 q 66 14 57 20 q 36 34 32 59 q 32 68 35 74 l 520 781 q 529 786 537 790 q 545 794 551 795 z"},"6":{"x_min":0,"x_max":642,"ha":642,"o":"m 516 775 q 547 761 549 759 q 557 751 562 730 q 572 703 576 690 q 585 664 585 647 q 585 638 584 634 q 578 625 568 622 q 558 618 545 618 q 534 618 522 619 q 509 620 497 621 q 488 625 438 665 q 402 694 371 694 q 362 694 358 693 q 310 693 272 664 q 233 634 211 590 q 194 553 189 536 q 180 508 180 479 q 181 475 187 475 q 193 475 199 477 q 231 500 272 512 q 312 524 356 524 q 414 524 462 501 q 528 478 574 416 q 619 355 619 285 q 619 206 593 146 q 564 80 503 37 q 468 15 422 3 q 375 -9 327 -9 q 249 -9 188 22 q 107 62 64 142 q 22 223 22 318 q 22 465 65 568 q 117 692 232 754 q 300 796 395 796 q 460 796 516 775 z m 468 331 q 452 369 425 388 q 404 403 378 408 q 352 414 330 414 q 280 414 242 390 q 205 366 181 321 q 171 302 171 275 q 171 254 178 227 q 180 219 192 182 q 208 150 236 127 q 264 104 295 98 q 302 97 308 97 q 315 97 322 97 q 360 97 390 108 q 419 120 441 148 q 462 169 473 198 q 484 227 484 257 q 484 294 468 331 z"},"r":{"x_min":0,"x_max":400,"ha":400,"o":"m 93 481 q 118 500 139 510 q 160 521 169 521 q 183 521 186 503 q 190 485 192 470 q 194 454 202 445 q 231 467 260 490 q 292 511 324 511 q 332 510 336 510 q 349 508 363 507 q 380 503 384 491 q 384 474 386 447 q 387 420 387 419 q 387 393 382 375 q 375 366 366 362 q 357 359 346 359 q 325 361 314 361 q 297 371 288 376 q 272 385 258 385 q 251 385 243 382 q 210 371 191 339 q 191 282 191 224 q 191 167 192 108 q 192 87 229 84 q 266 81 269 58 q 268 35 267 20 q 266 5 250 3 q 233 1 191 0 q 149 -1 142 -1 q 134 -1 130 -1 q 112 -1 94 0 q 75 0 57 0 q 50 0 46 0 q 38 1 29 8 q 20 15 20 22 q 19 27 19 38 q 19 51 22 62 q 26 73 37 79 q 58 81 67 85 q 84 92 84 106 l 84 333 q 84 345 68 357 q 47 356 37 356 q 20 356 20 371 q 20 390 20 396 q 20 423 39 439 q 45 444 93 481 z"},"2":{"x_min":0,"x_max":595,"ha":595,"o":"m 101 777 q 138 787 184 794 q 230 800 271 800 q 365 800 432 771 q 509 737 539 667 q 549 644 553 623 q 557 602 557 580 q 557 531 532 481 q 511 438 471 392 q 456 374 394 310 q 309 217 224 124 q 218 114 230 108 q 243 108 273 107 q 303 106 319 106 q 352 106 376 110 q 399 113 421 124 q 424 126 460 156 q 483 175 502 175 q 512 175 517 173 q 528 173 534 173 q 550 173 560 169 q 569 165 574 151 q 574 128 562 100 q 543 60 525 20 q 517 6 506 3 q 494 0 468 -2 q 397 -2 256 -1 q 115 0 44 0 q 32 8 28 20 q 23 31 23 47 q 24 72 25 97 q 32 127 80 172 q 110 200 120 214 q 162 259 211 311 q 256 358 304 408 q 351 458 391 506 q 417 541 417 587 q 417 613 407 632 q 392 666 361 684 q 330 701 293 701 q 251 701 209 679 q 196 672 135 632 q 116 625 93 625 q 67 625 50 636 q 41 647 41 656 q 41 661 44 667 q 54 706 65 746 q 76 770 101 777 z"},"9":{"x_min":0,"x_max":642,"ha":642,"o":"m 289 796 q 374 796 428 772 q 491 744 546 671 q 581 623 598 562 q 616 501 616 434 q 616 350 592 267 q 569 184 527 118 q 482 54 410 21 q 344 -9 261 -9 q 218 -9 180 -2 q 144 7 109 16 q 70 30 53 63 q 43 93 38 108 q 29 135 29 157 q 36 167 49 172 q 62 178 76 178 q 90 178 109 174 q 128 169 134 168 q 183 124 216 109 q 249 94 278 94 q 303 94 327 104 q 388 121 425 183 q 456 234 466 304 l 458 318 q 445 315 429 304 q 413 294 403 291 q 345 263 277 263 q 233 263 192 275 q 150 287 118 312 q 65 348 40 402 q 15 455 15 520 q 15 545 18 569 q 23 576 26 596 q 28 617 31 624 q 61 700 134 748 q 206 796 289 796 z m 443 604 q 431 632 404 656 q 376 679 350 684 q 323 690 304 690 q 233 690 188 635 q 171 612 160 584 q 149 555 149 525 q 149 504 157 480 q 165 448 192 420 q 218 391 244 383 q 271 375 300 375 q 358 375 399 401 q 426 420 440 434 q 461 455 470 477 q 465 533 460 558 q 454 583 443 604 z"}," ":{"x_min":0,"x_max":498,"ha":498,"o":""},"I":{"x_min":0,"x_max":365,"ha":365,"o":"m 50 800 q 132 800 220 800 q 308 800 317 799 q 340 799 340 771 q 340 763 340 759 q 340 729 335 720 q 330 711 318 707 q 298 703 278 699 q 259 692 250 657 q 246 637 246 611 l 246 167 q 246 106 286 98 q 327 90 330 84 q 334 77 334 60 q 334 49 330 34 q 327 20 321 7 q 316 3 306 1 q 297 -1 289 -1 q 281 -1 276 -1 l 58 -1 q 24 -1 21 34 q 20 52 20 60 q 20 71 21 76 q 23 83 29 93 q 35 103 76 108 q 116 114 116 167 l 116 649 q 116 697 75 702 q 34 707 29 724 q 29 745 30 768 q 30 791 36 795 q 43 799 50 800 z"},"H":{"x_min":0,"x_max":856,"ha":856,"o":"m 67 800 q 114 800 162 800 q 211 800 261 801 q 318 801 325 798 q 332 794 337 789 q 342 784 343 777 q 343 759 342 745 q 340 731 335 718 q 328 709 290 706 q 253 702 253 673 l 253 488 q 253 475 264 475 l 582 475 q 589 475 595 480 q 598 483 604 492 q 610 502 610 515 l 610 666 q 610 676 600 684 q 591 693 580 697 q 557 700 540 702 q 523 704 520 717 q 516 730 516 744 q 516 752 518 762 q 519 771 524 786 q 528 800 540 800 l 810 800 q 830 800 830 782 q 831 763 831 752 q 831 733 828 722 q 824 711 811 704 q 806 702 768 700 q 731 699 731 672 l 731 120 q 731 103 775 96 q 819 88 824 68 q 830 48 830 36 q 830 16 816 2 q 813 -1 790 -1 l 533 -1 q 529 -1 520 6 q 512 13 511 21 q 510 29 510 37 q 509 45 509 50 q 509 73 516 84 q 523 89 562 96 q 602 103 602 124 l 602 337 q 602 359 586 359 l 255 359 q 252 359 249 354 q 248 353 248 352 l 248 147 q 248 133 252 122 q 257 110 269 104 q 275 101 300 98 q 326 94 334 73 q 336 51 336 40 q 336 26 332 17 q 329 8 319 2 q 313 1 300 0 q 286 -1 284 -1 q 266 -1 257 -1 q 240 -1 232 -1 q 217 -1 210 -1 q 197 -1 190 -1 q 178 -1 172 -1 q 162 -1 157 -1 q 148 -1 143 -1 q 135 -1 131 -1 q 113 -1 94 0 q 76 0 58 0 q 52 0 48 0 q 40 2 33 9 q 26 16 24 21 q 23 29 22 36 q 22 44 22 54 q 22 62 22 70 q 24 80 24 84 q 33 97 76 102 q 119 108 119 134 l 119 587 q 119 632 115 660 q 111 689 94 698 q 88 701 64 705 q 40 709 35 724 q 30 738 30 753 q 30 770 37 785 q 48 800 67 800 z"},"4":{"x_min":0,"x_max":665,"ha":665,"o":"m 496 801 q 507 801 520 799 q 533 797 536 793 q 545 777 548 775 l 548 326 q 548 314 569 314 q 574 314 586 315 q 599 316 606 316 q 626 316 634 309 q 645 291 645 262 q 645 233 634 216 q 624 204 594 204 q 565 204 553 190 q 553 182 552 174 q 552 165 552 156 q 552 137 558 124 q 564 111 581 105 q 604 101 620 98 q 636 95 640 79 q 644 63 644 48 q 644 37 643 30 q 642 25 639 14 q 626 -2 594 -2 q 562 -2 550 -5 q 516 -5 444 -4 q 373 -3 333 -3 q 329 3 324 8 q 319 13 316 16 q 316 21 315 35 q 314 49 314 57 q 314 71 318 80 q 321 90 330 94 q 355 96 381 99 q 409 104 417 129 q 419 140 421 152 q 423 165 423 169 q 423 191 409 199 q 374 203 342 204 q 309 205 266 205 q 215 205 164 204 q 113 203 62 202 q 42 209 35 216 q 28 222 28 231 q 29 240 29 246 q 29 307 34 323 q 42 334 45 339 q 94 406 151 489 q 202 563 253 637 q 308 715 359 783 q 374 793 396 798 q 417 802 441 802 q 454 802 468 802 q 482 801 496 801 z m 418 623 q 418 635 402 630 q 287 483 194 337 q 191 331 191 322 q 191 315 195 315 l 404 315 q 418 315 418 328 z"},"~":{"x_min":0,"x_max":524,"ha":524,"o":"m 406 671 l 481 643 q 451 595 436 579 q 405 547 363 547 q 359 546 350 546 q 325 546 294 557 q 284 561 260 572 q 235 582 210 589 q 184 596 158 596 q 147 595 142 595 q 112 595 106 590 q 101 584 90 553 l 22 583 q 46 638 77 661 q 103 680 137 680 q 148 680 152 680 q 179 680 213 670 q 227 666 254 657 q 281 648 311 639 q 341 630 358 630 q 388 633 393 642 q 399 658 406 671 z"},"D":{"x_min":0,"x_max":750,"ha":750,"o":"m 465 780 q 501 773 526 762 q 574 741 629 693 q 679 651 706 572 q 734 493 734 405 q 734 348 724 298 q 714 249 691 202 q 642 96 531 44 q 436 -1 306 -1 l 59 -1 q 50 -1 42 10 q 33 20 31 30 q 29 41 29 48 q 29 75 45 94 q 48 96 86 102 q 123 108 123 130 l 123 534 l 123 682 q 123 689 85 691 q 47 693 39 708 q 31 723 31 728 q 31 733 31 738 q 31 747 32 756 q 34 777 45 789 q 51 794 57 800 l 161 800 q 264 800 330 796 q 397 793 465 780 z m 529 614 q 487 669 404 687 q 354 698 263 698 q 253 698 253 681 l 253 120 q 253 115 257 112 q 258 111 262 109 q 278 105 298 105 q 307 105 325 106 q 343 107 351 107 q 416 107 473 144 q 530 181 560 244 q 591 320 591 409 q 591 470 576 520 q 562 571 529 614 z"},"^":{"x_min":0,"x_max":524,"ha":524,"o":"m 204 681 l 282 681 l 406 549 l 356 549 l 243 610 l 130 549 l 80 549 z"},"0":{"x_min":0,"x_max":738,"ha":738,"o":"m 599 717 q 627 686 628 685 q 650 659 666 621 q 692 563 705 502 q 718 442 718 385 q 718 217 614 104 q 567 51 500 24 q 432 -4 357 -4 q 296 -4 242 15 q 142 53 81 158 q 24 256 24 370 q 24 508 74 611 q 131 728 245 776 q 304 798 374 798 q 438 798 497 778 q 556 757 599 717 z m 533 602 q 519 630 496 650 q 478 666 448 682 q 419 697 379 697 q 314 697 266 660 q 215 616 192 548 q 168 480 168 400 q 168 355 175 310 q 182 265 196 222 q 209 178 251 142 q 293 106 340 100 q 355 97 371 97 q 418 97 460 121 q 501 145 526 188 q 551 232 564 286 q 576 339 576 399 q 576 457 566 506 q 556 556 533 602 z"},"F":{"x_min":0,"x_max":636,"ha":636,"o":"m 84 800 l 532 800 q 545 800 558 789 q 572 778 577 764 q 592 727 598 709 q 609 679 614 651 q 614 642 607 634 q 600 626 589 622 q 578 618 560 618 q 528 618 493 639 q 413 687 411 687 l 262 687 q 253 687 248 683 q 244 679 244 675 l 244 471 q 244 462 262 462 q 281 462 290 462 q 300 462 305 462 q 361 462 391 467 q 421 472 446 492 q 457 500 476 500 q 501 500 515 488 q 520 484 523 478 q 525 473 527 468 q 534 452 544 418 q 555 384 568 345 q 571 337 564 328 q 558 318 549 315 q 540 312 525 309 q 510 306 501 306 q 483 306 475 314 q 449 338 422 346 q 394 354 353 354 l 260 354 q 255 354 249 348 q 247 346 244 342 l 244 123 q 244 100 292 92 q 339 85 349 67 q 356 55 356 37 q 356 12 339 5 q 330 1 314 0 q 298 -1 278 -1 q 264 -1 259 -1 l 47 -1 q 41 -1 34 6 q 26 14 24 22 q 23 29 23 44 q 23 71 38 87 q 50 97 68 101 q 85 105 102 110 q 118 114 118 131 l 118 651 q 118 667 108 685 q 100 693 72 696 q 43 700 40 712 q 36 723 35 730 q 34 737 34 747 q 34 766 40 775 q 44 790 55 795 q 66 800 84 800 z"},"`":{"x_min":0,"x_max":524,"ha":524,"o":"m 258 575 l 238 553 l 80 652 q 66 661 60 668 q 54 676 54 689 q 54 711 67 722 q 80 732 100 732 q 113 732 124 728 q 135 723 145 711 z"},"k":{"x_min":0,"x_max":552,"ha":552,"o":"m 216 776 q 219 777 222 777 q 226 777 227 777 q 240 777 240 761 q 243 740 243 729 q 243 716 236 708 q 208 692 200 662 q 193 633 193 588 l 193 322 q 193 314 202 314 q 209 314 213 318 q 258 353 267 361 q 293 383 315 409 q 318 418 312 430 q 305 441 298 444 q 292 447 286 450 q 279 453 277 460 q 277 474 278 483 q 279 492 283 504 q 287 515 297 515 l 508 515 q 513 515 522 510 q 532 504 533 499 q 540 478 540 462 q 540 445 529 438 q 490 420 451 403 l 360 311 q 359 310 363 304 q 365 301 368 296 q 408 233 450 168 q 493 103 533 46 q 535 36 535 31 q 535 27 533 17 q 516 1 500 -7 q 485 -15 470 -11 l 259 232 q 245 232 226 215 q 211 201 196 188 q 194 178 193 166 q 192 153 192 141 q 192 124 195 109 q 202 96 238 83 q 274 70 274 47 q 274 43 271 29 q 268 15 267 13 q 263 3 254 0 q 216 0 146 -1 q 75 -2 39 -2 q 27 -2 22 5 q 21 6 15 20 q 13 24 12 29 q 11 33 11 41 q 11 65 28 78 q 34 82 51 87 q 78 95 78 108 l 78 593 q 78 611 62 613 q 43 609 36 609 q 28 609 23 614 q 13 622 13 650 q 13 677 27 684 z"},"u":{"x_min":0,"x_max":612,"ha":612,"o":"m 222 525 q 227 525 235 524 q 243 524 243 507 q 244 488 244 479 q 244 466 242 457 q 239 448 230 441 q 200 428 196 399 l 196 187 q 196 136 243 117 q 258 113 276 113 q 301 113 324 120 q 355 130 399 158 q 406 163 406 172 q 406 197 408 238 q 409 280 409 281 q 409 309 407 325 q 405 341 401 346 q 399 349 392 354 q 375 353 367 353 q 347 353 345 370 q 346 392 346 405 q 347 418 358 425 q 384 443 424 464 q 481 493 538 522 q 546 524 554 522 q 561 519 565 510 q 567 500 567 495 q 568 487 568 479 q 568 468 566 458 q 564 449 551 438 q 538 428 537 427 q 525 415 518 399 q 518 376 518 364 q 518 343 518 333 q 518 315 518 306 q 518 290 518 282 q 518 268 518 261 q 518 249 518 243 q 518 232 518 227 q 518 218 518 213 q 518 205 518 201 q 518 182 518 164 q 517 145 517 127 q 517 120 517 117 q 517 105 526 96 q 536 88 548 86 q 571 86 581 72 q 583 56 583 45 q 583 17 568 9 q 530 3 496 3 q 462 3 436 8 q 409 12 406 34 q 404 55 399 61 q 398 63 392 61 q 347 32 311 18 q 266 0 224 0 q 201 0 174 6 q 148 13 124 38 q 99 62 91 90 q 86 114 84 140 q 82 167 82 192 q 82 207 83 237 q 84 267 84 282 q 84 310 82 331 q 79 352 71 355 q 66 357 58 357 q 48 356 43 356 q 28 356 23 367 q 23 374 22 382 q 22 389 22 397 q 22 413 29 425 q 36 437 49 441 q 135 483 222 525 z"},"U":{"x_min":0,"x_max":790,"ha":790,"o":"m 64 799 q 85 799 97 799 q 109 799 118 799 q 126 799 132 799 q 154 799 165 799 q 184 799 194 799 q 210 799 218 799 q 232 799 238 799 q 249 799 254 799 q 263 799 267 799 q 285 799 294 799 q 302 799 301 800 q 302 800 312 798 q 321 797 326 776 q 332 755 332 741 q 332 729 326 720 q 320 711 306 706 q 303 705 282 704 q 260 702 253 692 q 236 668 236 635 l 236 254 q 236 218 252 184 q 267 151 299 136 q 348 110 403 110 q 455 110 497 134 q 532 154 546 194 q 557 225 557 271 l 557 672 q 557 683 549 692 q 541 701 529 704 q 511 704 503 705 q 495 706 486 712 q 469 723 469 747 q 469 768 481 785 q 488 795 498 798 q 508 800 527 800 l 743 799 q 752 799 757 793 q 762 787 768 775 q 775 763 775 746 q 775 731 770 721 q 764 711 751 706 q 726 702 709 698 q 692 695 684 678 q 676 660 676 642 l 676 288 q 676 277 676 272 q 676 234 674 210 q 671 186 662 163 q 642 114 591 66 q 535 14 479 3 q 437 -4 389 -4 q 318 -4 266 15 q 207 37 168 85 q 134 116 120 162 q 106 207 106 259 l 106 670 q 106 697 64 702 q 23 708 18 730 q 14 753 14 759 q 14 777 32 790 q 40 793 49 796 q 52 797 64 799 z"},"o":{"x_min":0,"x_max":550,"ha":550,"o":"m 377 496 q 414 486 449 451 q 481 420 504 373 q 528 326 528 257 q 528 214 516 172 q 504 131 479 98 q 441 48 390 23 q 339 -2 277 -2 q 257 -2 237 1 q 179 11 130 47 q 81 83 54 136 q 27 216 27 277 q 27 314 38 345 q 60 406 92 439 q 107 451 122 463 l 129 469 q 160 492 200 504 q 240 516 283 516 q 336 516 377 496 z m 359 384 q 339 405 324 414 q 310 422 290 428 q 271 433 259 433 q 215 433 182 398 q 164 379 154 351 q 145 323 145 293 q 145 261 152 232 q 158 203 171 170 q 192 134 222 110 q 258 81 295 81 q 326 81 354 98 q 383 115 396 144 q 414 186 414 233 q 414 276 400 316 q 386 357 359 384 z"},"N":{"x_min":0,"x_max":772,"ha":772,"o":"m 571 800 l 730 800 q 736 800 741 796 q 753 787 756 778 q 758 769 760 758 q 761 748 761 740 q 761 723 752 716 q 743 708 706 702 q 668 695 668 667 l 668 26 q 668 7 649 1 q 639 -2 613 -2 q 571 -1 542 2 q 514 5 504 27 l 240 586 q 232 596 229 597 q 225 598 225 591 l 225 123 q 225 97 267 94 q 309 91 316 69 q 318 60 318 55 q 319 47 319 38 q 319 19 310 6 l 294 -2 l 41 -2 q 29 -2 24 9 q 20 20 20 38 q 21 59 21 67 q 24 83 80 100 q 105 108 105 129 l 105 654 q 105 685 63 692 q 21 699 16 719 q 15 721 12 737 q 9 753 9 762 q 9 780 15 790 q 21 800 37 800 q 89 800 142 800 q 194 799 248 799 q 268 799 276 796 q 285 794 291 782 q 319 725 350 660 q 378 598 407 537 q 470 396 534 255 q 538 246 545 247 q 547 248 547 251 q 547 252 548 253 l 548 671 q 548 694 503 700 q 458 706 458 742 q 458 753 458 764 q 459 776 468 784 q 476 793 496 796 q 517 800 542 800 q 562 800 571 800 z"},"G":{"x_min":0,"x_max":744,"ha":744,"o":"m 244 770 q 273 783 318 790 q 364 797 405 797 q 453 797 492 790 q 531 783 547 770 q 574 753 587 715 q 598 670 605 648 q 605 644 600 637 q 596 630 584 628 q 573 625 553 625 q 535 625 521 630 q 507 634 497 645 q 446 704 374 704 q 349 704 323 695 q 249 670 204 598 q 159 527 159 447 q 159 307 190 234 q 216 172 269 135 q 293 120 324 112 q 356 104 389 104 q 461 104 510 141 q 512 142 513 148 q 513 151 514 155 q 514 168 515 182 q 516 197 517 212 q 517 234 510 250 q 503 266 484 274 q 477 277 449 280 q 421 282 412 301 q 410 320 408 340 q 408 355 412 364 q 417 373 428 373 l 698 373 q 709 369 714 364 q 719 359 721 347 q 721 332 721 324 q 721 298 714 290 q 713 289 670 273 q 644 263 641 243 q 634 217 630 190 q 627 162 627 144 q 627 132 627 121 q 627 110 628 100 q 628 84 622 73 q 617 62 599 50 q 559 23 508 10 q 456 -4 399 -4 q 276 -4 184 51 q 91 106 52 211 q 21 295 21 422 q 21 534 80 630 q 140 727 244 770 z"},"q":{"x_min":0,"x_max":618,"ha":618,"o":"m 492 518 q 497 520 500 521 q 507 524 512 524 q 517 524 524 521 q 530 518 542 502 q 550 491 550 479 q 550 470 532 435 q 523 418 523 405 l 524 -80 q 526 -89 532 -97 q 537 -105 545 -109 q 563 -112 572 -114 q 582 -116 588 -127 q 588 -131 590 -140 q 591 -149 591 -154 q 591 -170 584 -180 q 576 -191 562 -196 q 548 -200 530 -200 q 511 -199 503 -199 q 490 -199 458 -200 q 426 -201 410 -201 q 379 -201 361 -198 q 343 -196 336 -189 q 325 -176 325 -156 q 325 -143 330 -135 q 336 -127 361 -122 q 408 -113 408 -90 q 408 -69 408 -50 q 408 -31 409 -13 q 409 12 406 47 q 405 54 394 50 q 384 45 380 44 q 318 -4 236 -4 q 179 -4 134 22 q 79 54 51 110 q 23 166 23 234 q 23 256 26 279 q 35 350 78 409 q 125 473 192 496 q 214 506 236 510 q 257 513 287 513 q 309 513 354 510 q 398 506 414 506 q 447 506 458 508 q 470 510 492 518 z m 391 377 q 382 390 362 405 q 342 420 326 426 q 307 430 285 430 q 259 430 235 422 q 211 415 192 400 q 135 347 135 265 q 135 246 138 226 q 147 186 176 154 q 205 121 242 113 q 260 110 278 110 q 357 110 406 164 q 408 177 408 193 q 408 209 408 218 q 408 235 407 271 q 406 307 406 324 q 406 338 402 351 q 395 368 391 377 z"},"d":{"x_min":0,"x_max":594,"ha":594,"o":"m 527 763 q 539 766 540 766 q 554 766 554 751 q 555 729 555 718 q 555 702 551 691 q 538 677 525 664 q 513 648 513 628 l 513 101 q 513 84 547 76 q 581 68 581 51 q 581 45 578 37 q 578 30 576 20 q 575 11 566 4 q 548 -3 518 -5 q 487 -7 459 -7 q 435 -7 423 -7 q 416 -5 408 3 q 400 11 399 20 q 398 28 396 37 q 395 46 389 50 q 373 46 355 35 q 337 24 321 14 q 280 -7 227 -7 q 156 -7 110 30 q 65 66 44 120 q 23 173 23 235 q 23 245 23 256 q 23 266 25 278 q 37 351 88 415 q 143 483 211 499 q 226 503 246 505 q 267 507 285 507 q 307 507 333 504 q 359 501 382 496 q 396 496 396 505 l 396 581 q 396 588 390 594 q 383 599 377 599 q 372 599 364 597 q 356 595 352 595 q 344 595 339 599 q 327 608 327 627 q 327 638 331 650 q 335 661 341 669 q 372 688 410 707 q 468 735 527 763 z m 379 375 q 367 404 339 415 q 311 426 274 426 q 186 414 150 341 q 134 304 134 262 q 134 211 157 176 q 170 144 200 126 q 231 107 266 107 q 303 107 348 126 q 394 145 396 161 q 396 184 396 206 q 396 228 397 250 q 397 288 394 318 q 390 347 379 375 z"},"1":{"x_min":0,"x_max":360,"ha":360,"o":"m 198 795 q 207 795 218 790 q 230 784 232 781 q 236 773 240 766 q 243 732 244 644 q 245 556 245 536 q 245 472 244 334 q 243 196 243 136 q 243 125 252 114 q 262 102 274 100 q 278 97 301 94 q 324 92 329 76 q 331 66 333 54 q 335 43 335 34 q 335 11 319 0 l 294 -3 q 270 -3 220 -4 q 169 -5 143 -5 q 136 -5 132 -5 q 112 -5 93 -5 q 66 -2 54 -1 q 47 2 40 9 q 34 16 32 22 q 32 32 32 38 q 32 53 34 64 q 37 75 46 83 q 51 87 81 94 q 111 102 115 120 q 119 137 120 158 q 120 180 120 192 l 120 600 q 120 608 112 617 q 104 626 95 628 q 86 631 81 631 q 65 630 58 630 q 46 630 42 632 q 34 636 31 647 q 31 652 30 660 q 30 667 30 677 q 30 691 32 699 q 35 707 43 715 q 118 763 198 795 z"},"5":{"x_min":0,"x_max":618,"ha":618,"o":"m 106 795 q 142 795 238 796 q 334 797 378 797 q 492 797 502 792 q 525 778 534 741 q 548 687 553 677 q 553 668 549 659 q 545 650 536 649 q 527 648 518 648 q 508 647 504 647 q 465 647 450 662 q 431 680 414 684 q 397 688 369 690 q 341 692 316 692 q 297 692 276 692 q 256 691 234 691 q 226 691 218 691 q 212 689 209 683 q 205 679 204 674 q 204 673 203 669 q 203 636 200 584 q 198 533 198 523 q 198 514 204 510 q 255 522 309 522 q 379 522 438 499 q 497 476 539 426 q 601 358 601 266 q 601 238 593 204 q 584 146 539 95 q 494 44 435 23 q 365 -4 281 -4 q 228 -4 180 4 q 133 13 81 31 q 58 51 45 81 q 40 92 27 135 q 25 143 25 149 q 25 159 29 167 q 50 179 82 179 q 119 179 142 164 q 176 134 212 117 q 248 100 290 100 q 299 100 308 100 q 322 103 329 104 q 370 111 408 142 q 445 173 455 214 q 461 237 461 260 q 461 336 407 384 q 359 418 295 418 q 271 418 248 412 q 241 409 201 393 q 150 372 115 372 q 102 372 95 373 q 77 373 70 378 q 64 384 61 395 q 64 409 64 417 q 64 500 66 625 q 69 750 69 768 q 69 775 83 785 q 97 795 106 795 z"}}}
